<?xml version="1.0" encoding="utf-8" standalone="no"?>
<!DOCTYPE svg PUBLIC "-//W3C//DTD SVG 1.1//EN"
  "http://www.w3.org/Graphics/SVG/1.1/DTD/svg11.dtd">
<svg xmlns:xlink="http://www.w3.org/1999/xlink" width="352.541562pt" height="294.636562pt" viewBox="0 0 352.541562 294.636562" xmlns="http://www.w3.org/2000/svg" version="1.1">
 <metadata>
  <rdf:RDF xmlns:dc="http://purl.org/dc/elements/1.1/" xmlns:cc="http://creativecommons.org/ns#" xmlns:rdf="http://www.w3.org/1999/02/22-rdf-syntax-ns#">
   <cc:Work>
    <dc:type rdf:resource="http://purl.org/dc/dcmitype/StillImage"/>
    <dc:date>2026-06-14T07:13:52.570735</dc:date>
    <dc:format>image/svg+xml</dc:format>
    <dc:creator>
     <cc:Agent>
      <dc:title>Matplotlib v3.11.0, https://matplotlib.org/</dc:title>
     </cc:Agent>
    </dc:creator>
   </cc:Work>
  </rdf:RDF>
 </metadata>
 <defs>
  <style type="text/css">*{stroke-linejoin: round; stroke-linecap: butt}</style>
 </defs>
 <g id="figure_1">
  <g id="patch_1">
   <path d="M 0 294.636562 
L 352.541562 294.636562 
L 352.541562 0 
L 0 0 
z
" style="fill: #ffffff"/>
  </g>
  <g id="axes_1">
   <g id="patch_2">
    <path d="M 44.103906 256.435781 
L 345.341563 256.435781 
L 345.341563 22.318125 
L 44.103906 22.318125 
z
" style="fill: #ffffff"/>
   </g>
   <g id="matplotlib.axis_1">
    <g id="xtick_1">
     <g id="line2d_1">
      <defs>
       <path id="m646ad7abf3" d="M 0 0 
L 0 3.5 
" style="stroke: #000000; stroke-width: 0.8"/>
      </defs>
      <g>
       <use xlink:href="#m646ad7abf3" x="57.796527" y="256.435781" style="stroke: #000000; stroke-width: 0.8"/>
      </g>
     </g>
     <g id="text_1">
      <!-- 0.0 -->
      <g transform="translate(49.844964 271.033437) scale(0.1 -0.1)">
       <defs>
        <path id="DejaVuSans-13" d="M 2034 4250 
Q 1547 4250 1301 3770 
Q 1056 3291 1056 2328 
Q 1056 1369 1301 889 
Q 1547 409 2034 409 
Q 2525 409 2770 889 
Q 3016 1369 3016 2328 
Q 3016 3291 2770 3770 
Q 2525 4250 2034 4250 
z
M 2034 4750 
Q 2819 4750 3233 4129 
Q 3647 3509 3647 2328 
Q 3647 1150 3233 529 
Q 2819 -91 2034 -91 
Q 1250 -91 836 529 
Q 422 1150 422 2328 
Q 422 3509 836 4129 
Q 1250 4750 2034 4750 
z
" transform="scale(0.015625)"/>
        <path id="DejaVuSans-11" d="M 684 794 
L 1344 794 
L 1344 0 
L 684 0 
L 684 794 
z
" transform="scale(0.015625)"/>
       </defs>
       <use xlink:href="#DejaVuSans-13"/>
       <use xlink:href="#DejaVuSans-11" transform="translate(63.625 0)"/>
       <use xlink:href="#DejaVuSans-13" transform="translate(95.40625 0)"/>
      </g>
     </g>
    </g>
    <g id="xtick_2">
     <g id="line2d_2">
      <g>
       <use xlink:href="#m646ad7abf3" x="112.56701" y="256.435781" style="stroke: #000000; stroke-width: 0.8"/>
      </g>
     </g>
     <g id="text_2">
      <!-- 0.2 -->
      <g transform="translate(104.615447 271.033437) scale(0.1 -0.1)">
       <defs>
        <path id="DejaVuSans-15" d="M 1228 531 
L 3431 531 
L 3431 0 
L 469 0 
L 469 531 
Q 828 903 1448 1529 
Q 2069 2156 2228 2338 
Q 2531 2678 2651 2914 
Q 2772 3150 2772 3378 
Q 2772 3750 2511 3984 
Q 2250 4219 1831 4219 
Q 1534 4219 1204 4116 
Q 875 4013 500 3803 
L 500 4441 
Q 881 4594 1212 4672 
Q 1544 4750 1819 4750 
Q 2544 4750 2975 4387 
Q 3406 4025 3406 3419 
Q 3406 3131 3298 2873 
Q 3191 2616 2906 2266 
Q 2828 2175 2409 1742 
Q 1991 1309 1228 531 
z
" transform="scale(0.015625)"/>
       </defs>
       <use xlink:href="#DejaVuSans-13"/>
       <use xlink:href="#DejaVuSans-11" transform="translate(63.625 0)"/>
       <use xlink:href="#DejaVuSans-15" transform="translate(95.40625 0)"/>
      </g>
     </g>
    </g>
    <g id="xtick_3">
     <g id="line2d_3">
      <g>
       <use xlink:href="#m646ad7abf3" x="167.337493" y="256.435781" style="stroke: #000000; stroke-width: 0.8"/>
      </g>
     </g>
     <g id="text_3">
      <!-- 0.4 -->
      <g transform="translate(159.38593 271.033437) scale(0.1 -0.1)">
       <defs>
        <path id="DejaVuSans-17" d="M 2419 4116 
L 825 1625 
L 2419 1625 
L 2419 4116 
z
M 2253 4666 
L 3047 4666 
L 3047 1625 
L 3713 1625 
L 3713 1100 
L 3047 1100 
L 3047 0 
L 2419 0 
L 2419 1100 
L 313 1100 
L 313 1709 
L 2253 4666 
z
" transform="scale(0.015625)"/>
       </defs>
       <use xlink:href="#DejaVuSans-13"/>
       <use xlink:href="#DejaVuSans-11" transform="translate(63.625 0)"/>
       <use xlink:href="#DejaVuSans-17" transform="translate(95.40625 0)"/>
      </g>
     </g>
    </g>
    <g id="xtick_4">
     <g id="line2d_4">
      <g>
       <use xlink:href="#m646ad7abf3" x="222.107976" y="256.435781" style="stroke: #000000; stroke-width: 0.8"/>
      </g>
     </g>
     <g id="text_4">
      <!-- 0.6 -->
      <g transform="translate(214.156413 271.033437) scale(0.1 -0.1)">
       <defs>
        <path id="DejaVuSans-19" d="M 2113 2584 
Q 1688 2584 1439 2293 
Q 1191 2003 1191 1497 
Q 1191 994 1439 701 
Q 1688 409 2113 409 
Q 2538 409 2786 701 
Q 3034 994 3034 1497 
Q 3034 2003 2786 2293 
Q 2538 2584 2113 2584 
z
M 3366 4563 
L 3366 3988 
Q 3128 4100 2886 4159 
Q 2644 4219 2406 4219 
Q 1781 4219 1451 3797 
Q 1122 3375 1075 2522 
Q 1259 2794 1537 2939 
Q 1816 3084 2150 3084 
Q 2853 3084 3261 2657 
Q 3669 2231 3669 1497 
Q 3669 778 3244 343 
Q 2819 -91 2113 -91 
Q 1303 -91 875 529 
Q 447 1150 447 2328 
Q 447 3434 972 4092 
Q 1497 4750 2381 4750 
Q 2619 4750 2861 4703 
Q 3103 4656 3366 4563 
z
" transform="scale(0.015625)"/>
       </defs>
       <use xlink:href="#DejaVuSans-13"/>
       <use xlink:href="#DejaVuSans-11" transform="translate(63.625 0)"/>
       <use xlink:href="#DejaVuSans-19" transform="translate(95.40625 0)"/>
      </g>
     </g>
    </g>
    <g id="xtick_5">
     <g id="line2d_5">
      <g>
       <use xlink:href="#m646ad7abf3" x="276.878459" y="256.435781" style="stroke: #000000; stroke-width: 0.8"/>
      </g>
     </g>
     <g id="text_5">
      <!-- 0.8 -->
      <g transform="translate(268.926896 271.033437) scale(0.1 -0.1)">
       <defs>
        <path id="DejaVuSans-1b" d="M 2034 2216 
Q 1584 2216 1326 1975 
Q 1069 1734 1069 1313 
Q 1069 891 1326 650 
Q 1584 409 2034 409 
Q 2484 409 2743 651 
Q 3003 894 3003 1313 
Q 3003 1734 2745 1975 
Q 2488 2216 2034 2216 
z
M 1403 2484 
Q 997 2584 770 2862 
Q 544 3141 544 3541 
Q 544 4100 942 4425 
Q 1341 4750 2034 4750 
Q 2731 4750 3128 4425 
Q 3525 4100 3525 3541 
Q 3525 3141 3298 2862 
Q 3072 2584 2669 2484 
Q 3125 2378 3379 2068 
Q 3634 1759 3634 1313 
Q 3634 634 3220 271 
Q 2806 -91 2034 -91 
Q 1263 -91 848 271 
Q 434 634 434 1313 
Q 434 1759 690 2068 
Q 947 2378 1403 2484 
z
M 1172 3481 
Q 1172 3119 1398 2916 
Q 1625 2713 2034 2713 
Q 2441 2713 2670 2916 
Q 2900 3119 2900 3481 
Q 2900 3844 2670 4047 
Q 2441 4250 2034 4250 
Q 1625 4250 1398 4047 
Q 1172 3844 1172 3481 
z
" transform="scale(0.015625)"/>
       </defs>
       <use xlink:href="#DejaVuSans-13"/>
       <use xlink:href="#DejaVuSans-11" transform="translate(63.625 0)"/>
       <use xlink:href="#DejaVuSans-1b" transform="translate(95.40625 0)"/>
      </g>
     </g>
    </g>
    <g id="xtick_6">
     <g id="line2d_6">
      <g>
       <use xlink:href="#m646ad7abf3" x="331.648942" y="256.435781" style="stroke: #000000; stroke-width: 0.8"/>
      </g>
     </g>
     <g id="text_6">
      <!-- 1.0 -->
      <g transform="translate(323.697379 271.033437) scale(0.1 -0.1)">
       <defs>
        <path id="DejaVuSans-14" d="M 794 531 
L 1825 531 
L 1825 4091 
L 703 3866 
L 703 4441 
L 1819 4666 
L 2450 4666 
L 2450 531 
L 3481 531 
L 3481 0 
L 794 0 
L 794 531 
z
" transform="scale(0.015625)"/>
       </defs>
       <use xlink:href="#DejaVuSans-14"/>
       <use xlink:href="#DejaVuSans-11" transform="translate(63.625 0)"/>
       <use xlink:href="#DejaVuSans-13" transform="translate(95.40625 0)"/>
      </g>
     </g>
    </g>
    <g id="text_7">
     <!-- Recall -->
     <g transform="translate(179.804766 285.034219) scale(0.1 -0.1)">
      <defs>
       <path id="DejaVuSans-35" d="M 2841 2188 
Q 3044 2119 3236 1894 
Q 3428 1669 3622 1275 
L 4263 0 
L 3584 0 
L 2988 1197 
Q 2756 1666 2539 1819 
Q 2322 1972 1947 1972 
L 1259 1972 
L 1259 0 
L 628 0 
L 628 4666 
L 2053 4666 
Q 2853 4666 3247 4331 
Q 3641 3997 3641 3322 
Q 3641 2881 3436 2590 
Q 3231 2300 2841 2188 
z
M 1259 4147 
L 1259 2491 
L 2053 2491 
Q 2509 2491 2742 2702 
Q 2975 2913 2975 3322 
Q 2975 3731 2742 3939 
Q 2509 4147 2053 4147 
L 1259 4147 
z
" transform="scale(0.015625)"/>
       <path id="DejaVuSans-48" d="M 3597 1894 
L 3597 1613 
L 953 1613 
Q 991 1019 1311 708 
Q 1631 397 2203 397 
Q 2534 397 2845 478 
Q 3156 559 3463 722 
L 3463 178 
Q 3153 47 2828 -22 
Q 2503 -91 2169 -91 
Q 1331 -91 842 396 
Q 353 884 353 1716 
Q 353 2575 817 3079 
Q 1281 3584 2069 3584 
Q 2775 3584 3186 3129 
Q 3597 2675 3597 1894 
z
M 3022 2063 
Q 3016 2534 2758 2815 
Q 2500 3097 2075 3097 
Q 1594 3097 1305 2825 
Q 1016 2553 972 2059 
L 3022 2063 
z
" transform="scale(0.015625)"/>
       <path id="DejaVuSans-46" d="M 3122 3366 
L 3122 2828 
Q 2878 2963 2633 3030 
Q 2388 3097 2138 3097 
Q 1578 3097 1268 2742 
Q 959 2388 959 1747 
Q 959 1106 1268 751 
Q 1578 397 2138 397 
Q 2388 397 2633 464 
Q 2878 531 3122 666 
L 3122 134 
Q 2881 22 2623 -34 
Q 2366 -91 2075 -91 
Q 1284 -91 818 406 
Q 353 903 353 1747 
Q 353 2603 823 3093 
Q 1294 3584 2113 3584 
Q 2378 3584 2631 3529 
Q 2884 3475 3122 3366 
z
" transform="scale(0.015625)"/>
       <path id="DejaVuSans-44" d="M 2194 1759 
Q 1497 1759 1228 1600 
Q 959 1441 959 1056 
Q 959 750 1161 570 
Q 1363 391 1709 391 
Q 2188 391 2477 730 
Q 2766 1069 2766 1631 
L 2766 1759 
L 2194 1759 
z
M 3341 1997 
L 3341 0 
L 2766 0 
L 2766 531 
Q 2569 213 2275 61 
Q 1981 -91 1556 -91 
Q 1019 -91 701 211 
Q 384 513 384 1019 
Q 384 1609 779 1909 
Q 1175 2209 1959 2209 
L 2766 2209 
L 2766 2266 
Q 2766 2663 2505 2880 
Q 2244 3097 1772 3097 
Q 1472 3097 1187 3025 
Q 903 2953 641 2809 
L 641 3341 
Q 956 3463 1253 3523 
Q 1550 3584 1831 3584 
Q 2591 3584 2966 3190 
Q 3341 2797 3341 1997 
z
" transform="scale(0.015625)"/>
       <path id="DejaVuSans-4f" d="M 603 4863 
L 1178 4863 
L 1178 0 
L 603 0 
L 603 4863 
z
" transform="scale(0.015625)"/>
      </defs>
      <use xlink:href="#DejaVuSans-35"/>
      <use xlink:href="#DejaVuSans-48" transform="translate(65 0)"/>
      <use xlink:href="#DejaVuSans-46" transform="translate(126.53125 0)"/>
      <use xlink:href="#DejaVuSans-44" transform="translate(181.515625 0)"/>
      <use xlink:href="#DejaVuSans-4f" transform="translate(242.796875 0)"/>
      <use xlink:href="#DejaVuSans-4f" transform="translate(270.578125 0)"/>
     </g>
    </g>
   </g>
   <g id="matplotlib.axis_2">
    <g id="ytick_1">
     <g id="line2d_7">
      <defs>
       <path id="m4f0f5ec510" d="M 0 0 
L -3.5 0 
" style="stroke: #000000; stroke-width: 0.8"/>
      </defs>
      <g>
       <use xlink:href="#m4f0f5ec510" x="44.103906" y="245.79407" style="stroke: #000000; stroke-width: 0.8"/>
      </g>
     </g>
     <g id="text_8">
      <!-- 0.0 -->
      <g transform="translate(21.200781 249.592898) scale(0.1 -0.1)">
       <use xlink:href="#DejaVuSans-13"/>
       <use xlink:href="#DejaVuSans-11" transform="translate(63.625 0)"/>
       <use xlink:href="#DejaVuSans-13" transform="translate(95.40625 0)"/>
      </g>
     </g>
    </g>
    <g id="ytick_2">
     <g id="line2d_8">
      <g>
       <use xlink:href="#m4f0f5ec510" x="44.103906" y="203.227223" style="stroke: #000000; stroke-width: 0.8"/>
      </g>
     </g>
     <g id="text_9">
      <!-- 0.2 -->
      <g transform="translate(21.200781 207.026051) scale(0.1 -0.1)">
       <use xlink:href="#DejaVuSans-13"/>
       <use xlink:href="#DejaVuSans-11" transform="translate(63.625 0)"/>
       <use xlink:href="#DejaVuSans-15" transform="translate(95.40625 0)"/>
      </g>
     </g>
    </g>
    <g id="ytick_3">
     <g id="line2d_9">
      <g>
       <use xlink:href="#m4f0f5ec510" x="44.103906" y="160.660376" style="stroke: #000000; stroke-width: 0.8"/>
      </g>
     </g>
     <g id="text_10">
      <!-- 0.4 -->
      <g transform="translate(21.200781 164.459205) scale(0.1 -0.1)">
       <use xlink:href="#DejaVuSans-13"/>
       <use xlink:href="#DejaVuSans-11" transform="translate(63.625 0)"/>
       <use xlink:href="#DejaVuSans-17" transform="translate(95.40625 0)"/>
      </g>
     </g>
    </g>
    <g id="ytick_4">
     <g id="line2d_10">
      <g>
       <use xlink:href="#m4f0f5ec510" x="44.103906" y="118.09353" style="stroke: #000000; stroke-width: 0.8"/>
      </g>
     </g>
     <g id="text_11">
      <!-- 0.6 -->
      <g transform="translate(21.200781 121.892358) scale(0.1 -0.1)">
       <use xlink:href="#DejaVuSans-13"/>
       <use xlink:href="#DejaVuSans-11" transform="translate(63.625 0)"/>
       <use xlink:href="#DejaVuSans-19" transform="translate(95.40625 0)"/>
      </g>
     </g>
    </g>
    <g id="ytick_5">
     <g id="line2d_11">
      <g>
       <use xlink:href="#m4f0f5ec510" x="44.103906" y="75.526683" style="stroke: #000000; stroke-width: 0.8"/>
      </g>
     </g>
     <g id="text_12">
      <!-- 0.8 -->
      <g transform="translate(21.200781 79.325511) scale(0.1 -0.1)">
       <use xlink:href="#DejaVuSans-13"/>
       <use xlink:href="#DejaVuSans-11" transform="translate(63.625 0)"/>
       <use xlink:href="#DejaVuSans-1b" transform="translate(95.40625 0)"/>
      </g>
     </g>
    </g>
    <g id="ytick_6">
     <g id="line2d_12">
      <g>
       <use xlink:href="#m4f0f5ec510" x="44.103906" y="32.959837" style="stroke: #000000; stroke-width: 0.8"/>
      </g>
     </g>
     <g id="text_13">
      <!-- 1.0 -->
      <g transform="translate(21.200781 36.758665) scale(0.1 -0.1)">
       <use xlink:href="#DejaVuSans-14"/>
       <use xlink:href="#DejaVuSans-11" transform="translate(63.625 0)"/>
       <use xlink:href="#DejaVuSans-13" transform="translate(95.40625 0)"/>
      </g>
     </g>
    </g>
    <g id="text_14">
     <!-- Precision -->
     <g transform="translate(14.798438 161.686328) rotate(-90) scale(0.1 -0.1)">
      <defs>
       <path id="DejaVuSans-33" d="M 1259 4147 
L 1259 2394 
L 2053 2394 
Q 2494 2394 2734 2622 
Q 2975 2850 2975 3272 
Q 2975 3691 2734 3919 
Q 2494 4147 2053 4147 
L 1259 4147 
z
M 628 4666 
L 2053 4666 
Q 2838 4666 3239 4311 
Q 3641 3956 3641 3272 
Q 3641 2581 3239 2228 
Q 2838 1875 2053 1875 
L 1259 1875 
L 1259 0 
L 628 0 
L 628 4666 
z
" transform="scale(0.015625)"/>
       <path id="DejaVuSans-55" d="M 2631 2963 
Q 2534 3019 2420 3045 
Q 2306 3072 2169 3072 
Q 1681 3072 1420 2755 
Q 1159 2438 1159 1844 
L 1159 0 
L 581 0 
L 581 3500 
L 1159 3500 
L 1159 2956 
Q 1341 3275 1631 3429 
Q 1922 3584 2338 3584 
Q 2397 3584 2469 3576 
Q 2541 3569 2628 3553 
L 2631 2963 
z
" transform="scale(0.015625)"/>
       <path id="DejaVuSans-4c" d="M 603 3500 
L 1178 3500 
L 1178 0 
L 603 0 
L 603 3500 
z
M 603 4863 
L 1178 4863 
L 1178 4134 
L 603 4134 
L 603 4863 
z
" transform="scale(0.015625)"/>
       <path id="DejaVuSans-56" d="M 2834 3397 
L 2834 2853 
Q 2591 2978 2328 3040 
Q 2066 3103 1784 3103 
Q 1356 3103 1142 2972 
Q 928 2841 928 2578 
Q 928 2378 1081 2264 
Q 1234 2150 1697 2047 
L 1894 2003 
Q 2506 1872 2764 1633 
Q 3022 1394 3022 966 
Q 3022 478 2636 193 
Q 2250 -91 1575 -91 
Q 1294 -91 989 -36 
Q 684 19 347 128 
L 347 722 
Q 666 556 975 473 
Q 1284 391 1588 391 
Q 1994 391 2212 530 
Q 2431 669 2431 922 
Q 2431 1156 2273 1281 
Q 2116 1406 1581 1522 
L 1381 1569 
Q 847 1681 609 1914 
Q 372 2147 372 2553 
Q 372 3047 722 3315 
Q 1072 3584 1716 3584 
Q 2034 3584 2315 3537 
Q 2597 3491 2834 3397 
z
" transform="scale(0.015625)"/>
       <path id="DejaVuSans-52" d="M 1959 3097 
Q 1497 3097 1228 2736 
Q 959 2375 959 1747 
Q 959 1119 1226 758 
Q 1494 397 1959 397 
Q 2419 397 2687 759 
Q 2956 1122 2956 1747 
Q 2956 2369 2687 2733 
Q 2419 3097 1959 3097 
z
M 1959 3584 
Q 2709 3584 3137 3096 
Q 3566 2609 3566 1747 
Q 3566 888 3137 398 
Q 2709 -91 1959 -91 
Q 1206 -91 779 398 
Q 353 888 353 1747 
Q 353 2609 779 3096 
Q 1206 3584 1959 3584 
z
" transform="scale(0.015625)"/>
       <path id="DejaVuSans-51" d="M 3513 2113 
L 3513 0 
L 2938 0 
L 2938 2094 
Q 2938 2591 2744 2837 
Q 2550 3084 2163 3084 
Q 1697 3084 1428 2787 
Q 1159 2491 1159 1978 
L 1159 0 
L 581 0 
L 581 3500 
L 1159 3500 
L 1159 2956 
Q 1366 3272 1645 3428 
Q 1925 3584 2291 3584 
Q 2894 3584 3203 3211 
Q 3513 2838 3513 2113 
z
" transform="scale(0.015625)"/>
      </defs>
      <use xlink:href="#DejaVuSans-33"/>
      <use xlink:href="#DejaVuSans-55" transform="translate(58.546875 0)"/>
      <use xlink:href="#DejaVuSans-48" transform="translate(97.453125 0)"/>
      <use xlink:href="#DejaVuSans-46" transform="translate(158.984375 0)"/>
      <use xlink:href="#DejaVuSans-4c" transform="translate(213.96875 0)"/>
      <use xlink:href="#DejaVuSans-56" transform="translate(241.75 0)"/>
      <use xlink:href="#DejaVuSans-4c" transform="translate(293.84375 0)"/>
      <use xlink:href="#DejaVuSans-52" transform="translate(321.625 0)"/>
      <use xlink:href="#DejaVuSans-51" transform="translate(382.8125 0)"/>
     </g>
    </g>
   </g>
   <g id="line2d_13">
    <path d="M 331.648942 239.842835 
L 331.648942 239.797075 
L 331.331616 239.799033 
L 331.331616 239.692767 
L 331.331616 239.614572 
L 330.696963 239.524805 
L 330.696963 239.517388 
L 330.696963 239.485697 
L 330.379637 239.418098 
L 330.379637 239.381759 
L 330.379637 239.327667 
L 330.062311 239.267092 
L 330.062311 239.223883 
L 330.062311 239.188232 
L 329.586322 239.170549 
L 329.586322 239.088317 
L 329.586322 239.006167 
L 329.427659 239.010003 
L 329.427659 238.898957 
L 329.427659 238.818703 
L 329.268996 238.822644 
L 329.268996 238.711599 
L 329.268996 238.676438 
L 329.110333 238.680459 
L 329.110333 238.569324 
L 329.110333 238.316075 
L 328.793007 238.264328 
L 328.793007 238.213453 
L 328.793007 238.103924 
L 328.475681 238.112604 
L 328.475681 238.001491 
L 328.475681 237.953026 
L 328.317018 237.957453 
L 328.317018 237.846406 
L 328.317018 237.641608 
L 327.682366 237.552793 
L 327.682366 237.548852 
L 327.682366 237.380809 
L 326.88905 237.359673 
L 326.88905 237.293531 
L 326.88905 236.736157 
L 326.571724 236.707392 
L 326.571724 236.635375 
L 326.571724 236.58202 
L 326.254398 236.536363 
L 326.254398 236.481299 
L 326.254398 236.124462 
L 326.095735 236.129918 
L 326.095735 236.018887 
L 326.095735 235.758302 
L 325.937072 235.763957 
L 325.937072 235.65282 
L 325.937072 235.487179 
L 325.778409 235.492983 
L 325.778409 235.381991 
L 325.778409 235.309716 
L 325.30242 235.231608 
L 325.30242 235.216351 
L 325.30242 234.913581 
L 324.826431 234.915789 
L 324.826431 234.820813 
L 324.826431 234.791151 
L 324.667768 234.797351 
L 324.667768 234.686459 
L 324.667768 234.112702 
L 324.509105 234.119266 
L 324.509105 234.008118 
L 324.509105 233.974633 
L 324.191779 233.905827 
L 324.191779 233.876886 
L 324.191779 233.86933 
L 323.874453 233.786163 
L 323.874453 233.771602 
L 323.874453 233.691703 
L 323.557126 233.615702 
L 323.557126 233.594448 
L 323.557126 233.565574 
L 323.2398 233.482197 
L 323.2398 233.468132 
L 323.2398 233.339221 
L 322.922474 233.335808 
L 322.922474 233.242153 
L 322.922474 233.229293 
L 322.287822 233.166577 
L 322.287822 233.146771 
L 322.287822 232.993454 
L 322.129159 233.000671 
L 322.129159 232.889861 
L 322.129159 232.828521 
L 321.494507 232.763882 
L 321.494507 232.74658 
L 321.494507 232.69973 
L 321.018518 232.65234 
L 321.018518 232.611125 
L 321.018518 232.502946 
L 320.542529 232.425836 
L 320.542529 232.414671 
L 320.542529 232.323651 
L 320.225203 232.292446 
L 320.225203 232.227928 
L 320.225203 232.183343 
L 320.06654 232.191046 
L 320.06654 232.080224 
L 320.06654 231.876236 
L 319.749213 231.877661 
L 319.749213 231.781096 
L 319.749213 231.508209 
L 319.273224 231.475372 
L 319.273224 231.421392 
L 319.273224 231.162992 
L 318.955898 231.079472 
L 318.955898 231.068338 
L 318.955898 231.027994 
L 318.479909 231.02565 
L 318.479909 230.942227 
L 318.479909 230.889051 
L 317.845257 230.878929 
L 317.845257 230.811666 
L 317.845257 230.625998 
L 317.527931 230.536367 
L 317.527931 230.532357 
L 317.527931 230.409029 
L 316.893279 230.34978 
L 316.893279 230.333291 
L 316.893279 230.175578 
L 316.734616 230.18444 
L 316.734616 230.073523 
L 316.734616 229.970396 
L 316.258626 229.889351 
L 316.258626 229.886432 
L 316.258626 229.805738 
L 316.099963 229.814816 
L 316.099963 229.704256 
L 316.099963 229.693789 
L 315.782637 229.669363 
L 315.782637 229.60146 
L 315.782637 229.574138 
L 315.306648 229.512492 
L 315.306648 229.490975 
L 315.306648 229.471716 
L 314.989322 229.426866 
L 314.989322 229.379364 
L 314.989322 229.304045 
L 314.513333 229.234041 
L 314.513333 229.22129 
L 314.513333 229.168482 
L 313.878681 229.099972 
L 313.878681 229.095103 
L 313.878681 228.953475 
L 313.244029 228.931557 
L 313.244029 228.880787 
L 313.244029 228.856542 
L 313.085366 228.866226 
L 313.085366 228.755047 
L 313.085366 228.649267 
L 312.450713 228.63433 
L 312.450713 228.577249 
L 312.450713 228.422276 
L 312.133387 228.365929 
L 312.133387 228.331139 
L 312.133387 228.316826 
L 311.816061 228.283915 
L 311.816061 228.226138 
L 311.816061 228.218889 
L 311.340072 228.165442 
L 311.340072 228.137988 
L 311.340072 228.015235 
L 311.022746 227.959173 
L 311.022746 227.924459 
L 311.022746 227.883 
L 310.546757 227.809509 
L 310.546757 227.802829 
L 310.546757 227.5952 
L 310.229431 227.602425 
L 310.229431 227.505154 
L 310.229431 227.488347 
L 309.753442 227.470363 
L 309.753442 227.408563 
L 309.753442 227.383526 
L 308.960126 227.327827 
L 308.960126 227.325803 
L 308.960126 227.283186 
L 308.484137 227.277573 
L 308.484137 227.203872 
L 308.484137 227.131653 
L 308.166811 227.090922 
L 308.166811 227.041841 
L 308.166811 226.995658 
L 307.373496 226.941257 
L 307.373496 226.939133 
L 307.373496 226.77201 
L 306.421518 226.727568 
L 306.421518 226.694812 
L 305.786866 226.692151 
L 305.786866 226.628321 
L 305.786866 226.545146 
L 305.152213 226.490528 
L 305.152213 226.479292 
L 305.152213 226.475918 
L 304.676224 226.422868 
L 304.676224 226.399044 
L 304.676224 226.374022 
L 303.882909 226.332574 
L 303.882909 226.319944 
L 303.882909 226.301546 
L 303.565583 226.26325 
L 303.565583 226.213371 
L 303.565583 226.17842 
L 302.930931 226.184738 
L 302.930931 226.113145 
L 302.930931 226.09546 
L 302.454942 226.078199 
L 302.454942 226.018799 
L 302.454942 225.872351 
L 302.137615 225.84855 
L 302.137615 225.785235 
L 302.137615 225.770567 
L 301.820289 225.705757 
L 301.820289 225.683542 
L 301.820289 225.676127 
L 301.3443 225.683233 
L 301.3443 225.601193 
L 301.3443 225.50211 
L 301.026974 225.502081 
L 301.026974 225.414627 
L 301.026974 225.395515 
L 300.868311 225.407547 
L 300.868311 225.297336 
L 300.868311 225.289602 
L 300.233659 225.231936 
L 300.233659 225.226734 
L 300.233659 225.212416 
L 299.75767 225.157485 
L 299.75767 225.137785 
L 299.75767 225.125946 
L 299.440344 225.125413 
L 299.440344 225.039393 
L 299.440344 224.986101 
L 298.964355 224.934695 
L 298.964355 224.911806 
L 298.964355 224.875348 
L 298.647029 224.816057 
L 298.647029 224.78878 
L 298.647029 224.786048 
L 298.012376 224.731841 
L 298.012376 224.724956 
L 298.012376 224.561134 
L 297.536387 224.490908 
L 297.536387 224.488085 
L 297.536387 224.058971 
L 297.060398 224.006409 
L 297.060398 223.987165 
L 297.060398 223.972338 
L 296.743072 223.958226 
L 296.743072 223.888086 
L 296.743072 223.850594 
L 296.267083 223.788852 
L 296.267083 223.779766 
L 296.267083 223.699177 
L 295.632431 223.655529 
L 295.632431 223.641694 
L 295.632431 223.464946 
L 295.156442 223.398345 
L 295.156442 223.393618 
L 295.156442 223.374691 
L 294.521789 223.327063 
L 294.521789 223.317521 
L 294.521789 223.298414 
L 294.0458 223.241396 
L 294.0458 223.228549 
L 294.0458 223.210861 
L 293.411148 223.176434 
L 293.411148 223.153752 
L 293.411148 223.07727 
L 292.935159 223.046317 
L 292.935159 223.006876 
L 292.935159 222.924266 
L 292.300507 222.909667 
L 292.300507 222.867971 
L 292.300507 222.834505 
L 291.983181 222.82198 
L 291.983181 222.751208 
L 291.983181 222.732601 
L 291.348528 222.686532 
L 291.348528 222.678007 
L 291.348528 222.662647 
L 290.713876 222.61598 
L 290.713876 222.607379 
L 290.713876 222.529687 
L 289.444572 222.53698 
L 289.444572 222.531756 
L 289.444572 222.51084 
L 288.968583 222.48533 
L 288.968583 222.443205 
L 288.968583 222.298125 
L 288.492594 222.250173 
L 288.492594 222.230453 
L 288.492594 222.118683 
L 287.857941 222.07676 
L 287.857941 222.065818 
L 287.857941 222.054867 
L 287.540615 222.038271 
L 287.540615 221.974007 
L 287.540615 221.916796 
L 286.7473 221.895556 
L 286.7473 221.878807 
L 286.7473 221.873219 
L 286.429974 221.805479 
L 286.429974 221.792338 
L 286.429974 221.606835 
L 285.636659 221.601086 
L 285.636659 221.570406 
L 285.636659 221.558881 
L 285.002007 221.530188 
L 285.002007 221.50892 
L 285.002007 221.450729 
L 284.367355 221.403789 
L 284.367355 221.399874 
L 284.367355 221.380279 
L 284.050028 221.387024 
L 284.050028 221.300355 
L 284.050028 221.262739 
L 283.732702 221.265424 
L 283.732702 221.181763 
L 283.732702 221.171765 
L 283.415376 221.144267 
L 283.415376 221.091957 
L 283.415376 221.087924 
L 283.09805 221.094445 
L 283.09805 221.007339 
L 283.09805 220.92371 
L 282.463398 220.88307 
L 282.463398 220.874831 
L 282.463398 220.831486 
L 281.670083 220.805793 
L 281.670083 220.799554 
L 281.670083 220.678313 
L 281.194094 220.658136 
L 281.194094 220.613782 
L 281.194094 220.592606 
L 280.876768 220.575383 
L 280.876768 220.513599 
L 280.876768 220.500778 
L 280.559441 220.513252 
L 280.559441 220.420947 
L 280.559441 220.340981 
L 280.083452 220.360706 
L 280.083452 220.278002 
L 280.083452 220.256149 
L 279.607463 220.28899 
L 279.607463 220.194632 
L 279.607463 220.161553 
L 279.290137 220.162894 
L 279.290137 220.083046 
L 279.290137 220.080821 
L 278.814148 220.04695 
L 278.814148 220.017849 
L 278.814148 219.98419 
L 278.338159 219.929444 
L 278.338159 219.922659 
L 278.338159 219.911341 
L 278.020833 219.860094 
L 278.020833 219.832745 
L 278.020833 219.807624 
L 277.386181 219.77264 
L 277.386181 219.763442 
L 277.386181 219.754238 
L 276.910191 219.730039 
L 276.910191 219.693006 
L 276.910191 219.655868 
L 276.751528 219.672472 
L 276.751528 219.562825 
L 276.751528 219.539377 
L 276.275539 219.483562 
L 276.275539 219.478838 
L 276.275539 219.474111 
L 275.958213 219.502894 
L 275.958213 219.396174 
L 275.958213 219.379495 
L 275.323561 219.394383 
L 275.323561 219.336935 
L 275.323561 219.320133 
L 274.530246 219.298894 
L 274.530246 219.294064 
L 274.530246 219.265047 
L 273.895594 219.236101 
L 273.895594 219.221494 
L 273.895594 219.201993 
L 273.419604 219.211796 
L 273.419604 219.143215 
L 273.419604 219.140759 
L 272.943615 219.118479 
L 272.943615 219.081443 
L 272.943615 218.954748 
L 272.784952 218.972047 
L 272.784952 218.861833 
L 272.784952 218.727867 
L 271.832974 218.743629 
L 271.832974 218.723225 
L 271.832974 218.659264 
L 271.356985 218.60139 
L 271.356985 218.552259 
L 270.56367 218.547224 
L 270.56367 218.529004 
L 270.56367 218.46635 
L 269.929017 218.448368 
L 269.929017 218.427329 
L 269.929017 218.403621 
L 269.453028 218.34619 
L 269.453028 218.293017 
L 268.977039 218.27757 
L 268.977039 218.237419 
L 268.977039 218.232057 
L 268.659713 218.241304 
L 268.659713 218.157851 
L 268.659713 218.136233 
L 268.183724 218.139176 
L 268.183724 218.079428 
L 268.183724 217.972876 
L 267.549072 218.010239 
L 267.549072 217.935965 
L 267.549072 217.911119 
L 267.231746 217.909088 
L 267.231746 217.836941 
L 267.231746 217.806304 
L 266.597094 217.81027 
L 266.597094 217.768269 
L 266.597094 217.658474 
L 266.279767 217.604957 
L 266.279767 217.585054 
L 266.279767 217.51088 
L 265.645115 217.476698 
L 265.645115 217.473821 
L 265.645115 217.413283 
L 265.486452 217.432061 
L 265.486452 217.321917 
L 265.486452 217.289874 
L 265.010463 217.291044 
L 265.010463 217.235402 
L 265.010463 217.226597 
L 264.375811 217.196529 
L 264.375811 217.190625 
L 264.375811 217.187672 
L 263.741159 217.237233 
L 263.741159 217.15434 
L 263.741159 217.11569 
L 263.106507 217.099811 
L 263.106507 217.081862 
L 263.106507 217.075874 
L 262.471854 217.041723 
L 262.471854 216.935949 
L 261.995865 216.957597 
L 261.995865 216.884554 
L 261.995865 216.850953 
L 261.20255 216.844098 
L 261.20255 216.837953 
L 261.20255 216.81027 
L 260.409235 216.8341 
L 260.409235 216.797023 
L 260.409235 216.703915 
L 259.933246 216.716234 
L 259.933246 216.653735 
L 259.933246 216.644337 
L 259.61592 216.636811 
L 259.61592 216.573871 
L 259.61592 216.510658 
L 258.822604 216.518098 
L 258.822604 216.499015 
L 258.822604 216.419236 
L 258.029289 216.410326 
L 258.029289 216.384587 
L 257.711963 216.38934 
L 257.711963 216.314996 
L 257.711963 216.311755 
L 257.394637 216.280681 
L 257.394637 216.24159 
L 257.394637 216.228537 
L 256.759985 216.20492 
L 256.759985 216.198358 
L 256.759985 216.145755 
L 256.442659 216.179882 
L 256.442659 216.077502 
L 256.442659 216.057605 
L 255.96667 216.055849 
L 255.96667 216.0092 
L 255.96667 215.671695 
L 255.332017 215.655464 
L 255.332017 215.645177 
L 255.332017 215.535006 
L 254.380039 215.573852 
L 254.380039 215.54959 
L 254.380039 215.53918 
L 254.221376 215.56013 
L 254.221376 215.448707 
L 254.221376 215.420723 
L 253.428061 215.420851 
L 253.428061 215.413818 
L 253.428061 215.385656 
L 253.269398 215.406797 
L 253.269398 215.297236 
L 253.269398 215.283042 
L 252.952072 215.286424 
L 252.952072 215.215153 
L 252.952072 215.168648 
L 252.158756 215.164143 
L 252.158756 215.077536 
L 251.84143 215.10961 
L 251.84143 215.011635 
L 251.84143 214.956933 
L 251.524104 214.941571 
L 251.524104 214.890205 
L 251.524104 214.809141 
L 251.365441 214.830826 
L 251.365441 214.71966 
L 251.365441 214.663778 
L 250.572126 214.660721 
L 250.572126 214.634461 
L 250.096137 214.594857 
L 250.096137 214.591083 
L 250.096137 214.560859 
L 249.778811 214.551874 
L 249.778811 214.494918 
L 249.778811 214.460644 
L 249.144159 214.445989 
L 249.144159 214.43833 
L 249.144159 214.411494 
L 248.668169 214.370459 
L 248.668169 214.366602 
L 248.668169 214.300886 
L 248.19218 214.259179 
L 248.19218 214.2358 
L 247.240202 214.265028 
L 247.240202 214.261116 
L 247.240202 214.245457 
L 246.922876 214.215976 
L 246.922876 214.180561 
L 246.922876 214.141118 
L 246.288224 214.136743 
L 246.288224 214.12088 
L 246.288224 214.116912 
L 245.653572 214.132337 
L 245.653572 214.096493 
L 245.653572 214.084527 
L 245.018919 214.099926 
L 245.018919 214.063887 
L 245.018919 214.007663 
L 244.066941 214.048753 
L 244.066941 214.036648 
L 244.066941 213.931357 
L 243.273626 213.941142 
L 243.273626 213.937063 
L 243.273626 213.912571 
L 242.480311 213.922328 
L 242.480311 213.918227 
L 242.480311 213.873048 
L 242.321648 213.896362 
L 242.321648 213.78499 
L 242.321648 213.614375 
L 241.528332 213.623068 
L 241.528332 213.521968 
L 241.211006 213.531235 
L 241.211006 213.459154 
L 241.211006 213.403815 
L 240.89368 213.38305 
L 240.89368 213.340224 
L 240.89368 213.327354 
L 240.576354 213.375051 
L 240.576354 213.263217 
L 240.576354 213.250263 
L 240.100365 213.257277 
L 240.100365 213.213929 
L 240.100365 213.148691 
L 239.30705 213.238599 
L 239.30705 213.160058 
L 239.30705 213.142553 
L 238.672398 213.129688 
L 238.672398 213.014952 
L 238.037746 213.023713 
L 238.037746 213.00149 
L 238.037746 212.831604 
L 237.720419 212.795161 
L 237.720419 212.772586 
L 237.720419 212.641045 
L 237.24443 212.683269 
L 237.24443 212.605662 
L 237.24443 212.573601 
L 237.085767 212.598392 
L 237.085767 212.488062 
L 237.085767 212.460364 
L 236.133789 212.52207 
L 236.133789 212.498916 
L 236.133789 212.419952 
L 235.816463 212.465387 
L 235.816463 212.358056 
L 235.816463 212.353374 
L 235.499137 212.398953 
L 235.499137 212.295708 
L 235.499137 212.243846 
L 234.864485 212.250361 
L 234.864485 212.236143 
L 234.864485 212.088521 
L 234.547159 212.02914 
L 234.547159 211.980987 
L 234.229832 211.954826 
L 234.229832 211.920924 
L 234.229832 211.916075 
L 233.59518 211.936161 
L 233.59518 211.906969 
L 233.59518 211.872848 
L 232.167213 212.007442 
L 232.167213 211.992795 
L 232.167213 211.904643 
L 231.849887 211.853213 
L 231.849887 211.848278 
L 231.849887 211.838404 
L 230.897909 211.940425 
L 230.897909 211.886046 
L 230.897909 211.766791 
L 230.580582 211.749346 
L 230.580582 211.709293 
L 230.580582 211.679192 
L 230.104593 211.743101 
L 230.104593 211.647523 
L 230.104593 211.63743 
L 229.628604 211.630816 
L 229.628604 211.60548 
L 229.628604 211.595335 
L 228.993952 211.604977 
L 228.993952 211.5897 
L 228.993952 211.518228 
L 228.517963 211.562435 
L 228.517963 211.490649 
L 228.517963 211.454643 
L 227.883311 211.474229 
L 227.883311 211.453567 
L 227.883311 211.417349 
L 226.772669 211.502321 
L 226.772669 211.497132 
L 226.772669 211.491942 
L 226.29668 211.474307 
L 226.29668 211.463882 
L 226.29668 211.458667 
L 225.979354 211.476411 
L 225.979354 211.403172 
L 225.979354 211.387437 
L 225.662028 211.368352 
L 225.662028 211.331471 
L 225.662028 211.246874 
L 225.027376 211.250294 
L 225.027376 211.244973 
L 225.027376 211.218348 
L 224.392724 211.216328 
L 224.392724 211.210977 
L 223.916735 211.197355 
L 223.916735 211.181233 
L 223.916735 211.089593 
L 223.440745 211.097171 
L 223.440745 211.064632 
L 223.440745 210.955729 
L 223.282082 210.983641 
L 223.282082 210.874122 
L 223.282082 210.76944 
L 222.64743 210.771141 
L 222.64743 210.698883 
L 222.330104 210.649309 
L 222.330104 210.643711 
L 222.330104 210.582024 
L 222.012778 210.627494 
L 222.012778 210.526149 
L 222.012778 210.458261 
L 221.854115 210.486738 
L 221.854115 210.378782 
L 221.854115 210.36738 
L 221.536789 210.361753 
L 221.536789 210.315968 
L 221.536789 210.252819 
L 221.0608 210.229531 
L 221.0608 210.102018 
L 220.584811 210.153801 
L 220.584811 210.078021 
L 220.584811 209.783528 
L 220.108821 209.799786 
L 220.108821 209.758085 
L 220.108821 209.746152 
L 219.474169 209.791732 
L 219.474169 209.755837 
L 219.474169 209.737863 
L 218.522191 209.812581 
L 218.522191 209.806575 
L 218.522191 209.667884 
L 218.363528 209.697498 
L 218.363528 209.58828 
L 218.363528 209.502874 
L 218.204865 209.532625 
L 218.204865 209.422297 
L 218.204865 209.409996 
L 217.728876 209.394866 
L 217.728876 209.388689 
L 217.728876 209.363961 
L 217.41155 209.318561 
L 217.41155 209.312346 
L 217.41155 209.293688 
L 216.935561 209.334166 
L 216.935561 209.271788 
L 216.935561 209.259287 
L 216.618235 209.213186 
L 216.618235 209.206904 
L 216.618235 209.137657 
L 216.300908 209.135208 
L 216.300908 209.090911 
L 216.300908 209.021085 
L 215.824919 209.106133 
L 215.824919 209.004258 
L 215.824919 208.985093 
L 215.34893 208.987314 
L 215.34893 208.968073 
L 215.34893 208.961655 
L 214.396952 209.06258 
L 214.396952 209.036871 
L 214.396952 209.017566 
L 214.079626 209.066368 
L 214.079626 208.969598 
L 214.079626 208.937227 
L 213.603637 208.958818 
L 213.603637 208.919825 
L 213.603637 208.749898 
L 213.286311 208.726796 
L 213.286311 208.700428 
L 213.286311 208.660805 
L 213.127648 208.692091 
L 213.127648 208.579439 
L 213.127648 208.392398 
L 212.651658 208.426519 
L 212.651658 208.379406 
L 212.651658 208.359178 
L 212.175669 208.346021 
L 212.175669 208.312131 
L 211.541017 208.398535 
L 211.541017 208.330605 
L 211.541017 208.323799 
L 211.065028 208.344549 
L 211.065028 208.310411 
L 211.065028 208.27621 
L 210.271713 208.340545 
L 210.271713 208.326823 
L 210.271713 208.306222 
L 209.954387 208.336182 
L 209.954387 208.260412 
L 209.954387 208.114906 
L 209.795724 208.147246 
L 209.795724 208.0357 
L 209.795724 207.930524 
L 209.002408 208.001816 
L 209.002408 207.98068 
L 209.002408 207.959519 
L 208.367756 208.047912 
L 208.367756 207.97724 
L 208.367756 207.934709 
L 207.574441 207.992467 
L 207.574441 207.985354 
L 207.574441 207.963997 
L 206.939789 207.989047 
L 206.939789 207.93181 
L 206.4638 207.981086 
L 206.4638 207.923641 
L 206.4638 207.858807 
L 205.987811 207.879293 
L 205.987811 207.850345 
L 205.987811 207.843101 
L 205.511821 207.892641 
L 205.511821 207.834554 
L 205.511821 207.768994 
L 205.194495 207.770415 
L 205.194495 207.726491 
L 205.194495 207.711827 
L 204.40118 207.77032 
L 204.40118 207.755611 
L 203.766528 207.802705 
L 203.766528 207.780578 
L 203.766528 207.758426 
L 203.290539 207.749432 
L 203.290539 207.533142 
L 202.81455 207.560876 
L 202.81455 207.523267 
L 202.81455 207.432703 
L 202.179897 207.456945 
L 202.179897 207.41136 
L 201.703908 207.515139 
L 201.703908 207.408576 
L 201.703908 207.370373 
L 201.545245 207.405096 
L 201.545245 207.2978 
L 201.545245 207.243927 
L 201.069256 207.294608 
L 201.069256 207.240547 
L 201.069256 207.201838 
L 200.75193 207.194302 
L 200.75193 207.163199 
L 200.75193 207.093031 
L 200.434604 207.061686 
L 200.434604 207.053844 
L 200.434604 206.935829 
L 199.641289 207.018075 
L 199.641289 207.002264 
L 199.641289 206.883271 
L 199.1653 206.974151 
L 199.1653 206.878555 
L 199.1653 206.838584 
L 198.530647 206.909628 
L 198.530647 206.869541 
L 198.530647 206.797175 
L 197.895995 206.844302 
L 197.895995 206.828151 
L 197.895995 206.811985 
L 197.578669 206.795118 
L 197.578669 206.770769 
L 197.578669 206.754519 
L 196.944017 206.78558 
L 196.944017 206.695699 
L 196.309365 206.800515 
L 196.309365 206.734939 
L 196.309365 206.64441 
L 195.833376 206.655244 
L 195.833376 206.64697 
L 195.833376 206.63041 
L 195.51605 206.654215 
L 195.51605 206.596082 
L 195.51605 206.487662 
L 195.04006 206.498101 
L 195.04006 206.489712 
L 195.04006 206.464522 
L 194.405408 206.512124 
L 194.405408 206.503702 
L 194.405408 206.486846 
L 194.088082 206.47695 
L 194.088082 206.451568 
L 194.088082 206.4431 
L 193.612093 206.453516 
L 193.612093 206.445019 
L 193.612093 206.393961 
L 193.294767 206.460498 
L 193.294767 206.358089 
L 193.294767 206.332403 
L 192.818778 206.333954 
L 192.818778 206.100462 
L 192.660115 206.138415 
L 192.660115 206.025088 
L 192.660115 205.998843 
L 192.342789 205.978621 
L 192.342789 205.961046 
L 192.342789 205.872939 
L 192.025463 205.931825 
L 192.025463 205.843379 
L 192.025463 205.763442 
L 191.708137 205.742321 
L 191.708137 205.733389 
L 191.708137 205.670752 
L 191.073484 205.753587 
L 191.073484 205.717684 
L 191.073484 205.681717 
L 190.280169 205.767812 
L 190.280169 205.713649 
L 189.962843 205.719269 
L 189.962843 205.683003 
L 189.962843 205.64667 
L 188.852202 205.830197 
L 188.852202 205.812019 
L 188.852202 205.675157 
L 188.693539 205.71458 
L 188.693539 205.604497 
L 188.693539 205.55845 
L 188.376213 205.591505 
L 188.376213 205.526811 
L 188.376213 205.508289 
L 188.21755 205.547983 
L 188.21755 205.436575 
L 188.21755 205.36196 
L 187.74156 205.369386 
L 187.74156 205.303655 
L 187.265571 205.310915 
L 187.265571 205.301476 
L 186.948245 205.306323 
L 186.948245 205.26844 
L 186.948245 204.972424 
L 186.472256 205.017183 
L 186.472256 204.988263 
L 186.472256 204.939972 
L 186.15493 204.944035 
L 186.15493 204.91494 
L 186.15493 204.905232 
L 185.996267 204.946074 
L 185.996267 204.839066 
L 185.996267 204.79024 
L 185.678941 204.833136 
L 185.678941 204.764557 
L 185.678941 204.715432 
L 185.202952 204.779937 
L 185.202952 204.730665 
L 185.202952 204.701045 
L 184.885626 204.714498 
L 184.885626 204.674865 
L 184.885626 204.585411 
L 184.5683 204.568724 
L 184.5683 204.558727 
L 184.5683 204.548726 
L 183.616321 204.70898 
L 183.616321 204.688968 
L 183.616321 204.668936 
L 183.457658 204.710786 
L 183.457658 204.600347 
L 183.457658 204.46906 
L 182.981669 204.483809 
L 182.981669 204.443119 
L 182.50568 204.549566 
L 182.50568 204.457843 
L 182.50568 204.427179 
L 182.029691 204.513613 
L 182.029691 204.44191 
L 182.029691 204.369957 
L 181.871028 204.412575 
L 181.871028 204.299088 
L 181.871028 204.226545 
L 181.395039 204.251131 
L 181.395039 204.240719 
L 181.395039 204.146778 
L 180.760386 204.203921 
L 180.760386 204.056587 
L 180.125734 204.124391 
L 180.125734 204.082022 
L 179.649745 204.149053 
L 179.649745 204.106569 
L 179.649745 204.085294 
L 179.173756 204.173878 
L 179.173756 204.109946 
L 179.173756 204.056518 
L 178.85643 204.080091 
L 178.85643 204.037186 
L 178.85643 204.00495 
L 178.380441 204.094143 
L 178.380441 204.029542 
L 178.380441 203.932264 
L 177.587126 204.056447 
L 177.587126 204.045604 
L 177.587126 203.9913 
L 177.269799 204.047735 
L 177.269799 203.971476 
L 177.269799 203.86205 
L 176.79381 203.974401 
L 176.79381 203.886568 
L 176.79381 203.798365 
L 176.317821 203.878127 
L 176.317821 203.822799 
L 176.317821 203.633589 
L 175.841832 203.73599 
L 175.841832 203.657649 
L 175.841832 203.500087 
L 175.524506 203.568668 
L 175.524506 203.478153 
L 175.524506 203.375858 
L 175.048517 203.479166 
L 175.048517 203.399326 
L 175.048517 203.37646 
L 174.889854 203.422431 
L 174.889854 203.30782 
L 174.889854 203.18103 
L 174.572528 203.169309 
L 174.572528 203.157707 
L 174.572528 203.146099 
L 173.937876 203.262085 
L 173.937876 203.227223 
L 173.937876 203.168992 
L 173.303223 203.285614 
L 173.303223 203.250599 
L 173.303223 203.180395 
L 173.14456 203.227223 
L 173.14456 203.121569 
L 173.14456 203.03903 
L 172.827234 203.109472 
L 172.827234 203.026659 
L 172.827234 202.812226 
L 172.509908 202.894948 
L 172.509908 202.799057 
L 172.509908 202.349928 
L 172.033919 202.432256 
L 172.033919 202.383121 
L 172.033919 202.346197 
L 171.716593 202.343692 
L 171.716593 202.331334 
L 171.716593 202.257038 
L 171.399267 202.316378 
L 171.399267 202.241823 
L 171.399267 202.229372 
L 171.081941 202.288876 
L 171.081941 202.214017 
L 171.081941 201.962618 
L 170.923278 202.011378 
L 170.923278 201.897394 
L 170.923278 201.757271 
L 170.605952 201.842533 
L 170.605952 201.740172 
L 170.605952 201.727343 
L 170.288626 201.812877 
L 170.288626 201.710087 
L 170.288626 201.632679 
L 169.971299 201.718556 
L 169.971299 201.627999 
L 169.971299 201.602057 
L 169.812636 201.651599 
L 169.812636 201.547612 
L 169.812636 201.495435 
L 169.49531 201.529579 
L 169.49531 201.490314 
L 169.49531 201.477211 
L 169.336647 201.527068 
L 169.336647 201.422045 
L 169.336647 201.316523 
L 168.860658 201.387523 
L 168.860658 201.361036 
L 168.860658 201.34778 
L 168.543332 201.395297 
L 168.543332 201.342156 
L 168.543332 201.235493 
L 167.90868 201.370924 
L 167.90868 201.330807 
L 167.90868 201.317419 
L 167.432691 201.402746 
L 167.432691 201.362512 
L 167.432691 201.254865 
L 166.956702 201.407906 
L 166.956702 201.300009 
L 166.956702 201.123553 
L 166.798039 201.17487 
L 166.798039 201.065676 
L 166.798039 201.038294 
L 166.639376 201.089757 
L 166.639376 200.979986 
L 166.639376 200.952459 
L 166.163386 200.997219 
L 166.163386 200.955766 
L 165.84606 200.948738 
L 165.84606 200.851399 
L 165.687397 200.903475 
L 165.687397 200.791806 
L 165.687397 200.651438 
L 165.528734 200.703759 
L 165.528734 200.590928 
L 165.528734 200.520121 
L 165.370071 200.572631 
L 165.370071 200.458974 
L 165.370071 200.373355 
L 164.418093 200.604621 
L 164.418093 200.576047 
L 164.418093 200.533119 
L 164.100767 200.624942 
L 164.100767 200.524566 
L 164.100767 200.394854 
L 163.466115 200.550661 
L 163.466115 200.492823 
L 163.466115 200.362147 
L 163.148789 200.411304 
L 163.148789 200.352934 
L 163.148789 200.338318 
L 162.831462 200.402233 
L 162.831462 200.328996 
L 162.831462 200.093044 
L 162.672799 200.147273 
L 162.672799 200.043361 
L 162.672799 199.968849 
L 162.355473 199.988139 
L 162.355473 199.973175 
L 162.355473 199.9582 
L 162.038147 200.052463 
L 162.038147 199.962509 
L 162.038147 199.917399 
L 161.403495 200.031556 
L 161.403495 200.001399 
L 161.244832 200.056456 
L 161.244832 199.950687 
L 161.244832 199.691771 
L 160.768843 199.781606 
L 160.768843 199.750931 
L 160.768843 199.735578 
L 160.292854 199.87192 
L 160.292854 199.795102 
L 160.292854 199.516414 
L 159.816865 199.575761 
L 159.816865 199.528886 
L 159.658202 199.585217 
L 159.658202 199.475569 
L 159.658202 199.38117 
L 158.54756 199.699343 
L 158.54756 199.667879 
L 158.54756 199.174636 
L 158.071571 199.330776 
L 158.071571 199.234279 
L 158.071571 199.218157 
L 157.754245 199.22041 
L 157.754245 199.204227 
L 157.119593 199.370993 
L 157.119593 199.322416 
L 157.119593 199.241229 
L 156.802267 199.276185 
L 156.802267 199.243575 
L 156.802267 199.194574 
L 156.326278 199.255317 
L 156.326278 199.090869 
L 155.532962 199.286128 
L 155.532962 199.269624 
L 155.532962 199.236581 
L 155.215636 199.354759 
L 155.215636 199.238951 
L 155.215636 199.155876 
L 154.104995 199.472671 
L 154.104995 199.456057 
L 154.104995 199.43943 
L 153.629006 199.618827 
L 153.629006 199.502432 
L 153.629006 199.301528 
L 153.153017 199.381379 
L 153.153017 199.364533 
L 153.153017 199.195391 
L 152.994354 199.255972 
L 152.994354 199.153989 
L 152.994354 199.068662 
L 152.835691 199.129463 
L 152.835691 199.026753 
L 152.835691 198.958028 
L 152.359701 199.038005 
L 152.359701 198.917055 
L 151.883712 198.99737 
L 151.883712 198.980012 
L 151.407723 199.095595 
L 151.407723 199.060836 
L 151.407723 198.956249 
L 151.090397 199.080173 
L 151.090397 198.975316 
L 151.090397 198.940259 
L 150.773071 199.012051 
L 150.773071 198.959349 
L 150.773071 198.941755 
L 150.297082 199.111467 
L 150.297082 199.023486 
L 150.297082 198.917471 
L 149.979756 198.954415 
L 149.979756 198.936666 
L 149.979756 198.704698 
L 149.821093 198.767839 
L 149.821093 198.660104 
L 149.821093 198.588006 
L 149.186441 198.733602 
L 149.186441 198.624959 
L 148.710451 198.72575 
L 148.710451 198.707577 
L 148.710451 198.451672 
L 148.234462 198.58959 
L 148.234462 198.534423 
L 148.234462 198.497573 
L 148.075799 198.562136 
L 148.075799 198.451349 
L 148.075799 198.395761 
L 147.758473 198.451186 
L 147.758473 198.414011 
L 147.758473 198.395401 
L 147.441147 198.506873 
L 147.441147 198.413714 
L 147.441147 198.132024 
L 146.806495 198.356642 
L 146.806495 198.281135 
L 146.806495 198.186412 
L 146.647832 198.252318 
L 146.647832 198.138264 
L 146.647832 197.850719 
L 146.489169 197.917073 
L 146.489169 197.801195 
L 146.489169 197.781827 
L 146.01318 197.942944 
L 146.01318 197.865421 
L 146.01318 197.846001 
L 145.695854 197.882584 
L 145.695854 197.863108 
L 145.695854 197.804584 
L 145.537191 197.871704 
L 145.537191 197.754343 
L 145.537191 197.734727 
L 145.061201 197.838794 
L 145.061201 197.81914 
L 145.061201 197.779784 
L 144.743875 197.875762 
L 144.743875 197.796885 
L 144.743875 197.658222 
L 144.109223 197.831426 
L 144.109223 197.811549 
L 144.109223 197.731877 
L 143.633234 197.837668 
L 143.633234 197.817686 
L 143.633234 197.697445 
L 143.157245 197.783664 
L 143.157245 197.763525 
L 142.839919 197.78096 
L 142.839919 197.740511 
L 142.522593 197.778235 
L 142.522593 197.656213 
L 141.887941 197.833975 
L 141.887941 197.813575 
L 141.411951 197.922264 
L 141.411951 197.778812 
L 141.253288 197.849399 
L 141.253288 197.746513 
L 141.253288 197.725883 
L 140.935962 197.826268 
L 140.935962 197.764294 
L 140.935962 197.681413 
L 140.777299 197.752506 
L 140.777299 197.648609 
L 140.777299 197.565168 
L 140.142647 197.746672 
L 140.142647 197.59993 
L 139.507995 197.803864 
L 139.507995 197.782843 
L 139.507995 197.761804 
L 138.71468 198.01878 
L 138.71468 197.892278 
L 138.238691 198.005338 
L 138.238691 197.984164 
L 138.080027 198.057313 
L 138.080027 197.951279 
L 138.080027 197.930015 
L 137.604038 198.086574 
L 137.604038 198.044016 
L 137.604038 197.980037 
L 137.286712 198.084919 
L 137.286712 198.020794 
L 137.286712 197.999381 
L 136.969386 198.104675 
L 136.969386 198.040346 
L 136.969386 197.650696 
L 136.65206 197.734727 
L 136.65206 197.691016 
L 136.65206 197.603357 
L 136.176071 197.806798 
L 136.176071 197.71903 
L 136.176071 197.297708 
L 135.700082 197.436083 
L 135.700082 197.413695 
L 135.700082 197.346407 
L 135.382756 197.431644 
L 135.382756 197.386656 
L 135.382756 197.341584 
L 134.906767 197.481395 
L 134.906767 197.458819 
L 134.906767 197.436221 
L 134.589441 197.544998 
L 134.589441 197.477105 
L 134.589441 197.226522 
L 134.113451 197.390634 
L 134.113451 197.344819 
L 134.113451 197.275934 
L 133.954788 197.353846 
L 133.954788 197.238731 
L 133.954788 197.215643 
L 133.478799 197.358035 
L 133.478799 197.334915 
L 133.478799 197.242214 
L 133.161473 197.306654 
L 133.161473 197.283388 
L 133.161473 197.190098 
L 133.00281 197.269093 
L 133.00281 197.152109 
L 133.00281 197.105157 
L 132.050832 197.488337 
L 132.050832 197.464899 
L 132.050832 197.441438 
L 131.733506 197.554404 
L 131.733506 197.483912 
L 131.733506 197.365968 
L 131.574843 197.446283 
L 131.574843 197.3279 
L 131.574843 197.280384 
L 131.098854 197.498679 
L 131.098854 197.403609 
L 131.098854 197.212343 
L 130.622864 197.3603 
L 130.622864 197.336275 
L 130.622864 197.143217 
L 130.464201 197.225022 
L 130.464201 197.103721 
L 130.464201 197.030649 
L 129.194897 197.56879 
L 129.194897 197.471464 
L 129.036234 197.554508 
L 129.036234 197.432445 
L 129.036234 197.407958 
L 128.401582 197.643976 
L 128.401582 197.619485 
L 128.401582 197.17434 
L 128.242919 197.258682 
L 128.242919 197.13372 
L 128.242919 196.907158 
L 128.084256 196.992017 
L 128.084256 196.890768 
L 128.084256 196.584484 
L 127.76693 196.755461 
L 127.76693 196.652762 
L 127.76693 196.289905 
L 127.449604 196.462376 
L 127.449604 196.35797 
L 127.449604 196.305601 
L 126.973614 196.460882 
L 126.973614 196.434641 
L 126.180299 196.792171 
L 126.180299 196.765981 
L 126.180299 196.713516 
L 125.862973 196.888935 
L 125.862973 196.783932 
L 125.862973 196.412844 
L 125.70431 196.501293 
L 125.70431 196.394367 
L 125.70431 196.34073 
L 125.545647 196.429476 
L 125.545647 196.321986 
L 125.545647 196.186964 
L 125.386984 196.27611 
L 125.386984 196.167697 
L 125.386984 196.086074 
L 125.069658 196.156163 
L 125.069658 196.046708 
L 124.752332 196.199345 
L 124.752332 196.117053 
L 124.752332 195.785135 
L 124.593669 195.875846 
L 124.593669 195.764359 
L 124.593669 195.680416 
L 124.435006 195.771474 
L 124.435006 195.659253 
L 124.435006 195.574756 
L 124.11768 195.673107 
L 124.11768 195.644853 
L 124.11768 195.389135 
L 123.483027 195.644171 
L 123.483027 195.558395 
L 123.165701 195.74401 
L 123.165701 195.629479 
L 123.165701 195.600765 
L 122.689712 195.765793 
L 122.689712 195.737025 
L 122.372386 195.866961 
L 122.372386 195.809342 
L 122.372386 195.780483 
L 122.213723 195.874544 
L 122.213723 195.758923 
L 122.213723 195.613641 
L 122.05506 195.708152 
L 122.05506 195.59147 
L 122.05506 195.532924 
L 121.737734 195.664206 
L 121.737734 195.605541 
L 121.737734 195.487796 
L 121.579071 195.583177 
L 121.579071 195.465033 
L 121.579071 195.256939 
L 121.261745 195.419103 
L 121.261745 195.329521 
L 121.261745 195.269623 
L 121.103082 195.366006 
L 121.103082 195.245939 
L 121.103082 195.125299 
L 120.627093 195.355795 
L 120.627093 195.295354 
L 120.627093 195.052133 
L 120.46843 195.149779 
L 120.46843 195.02745 
L 120.46843 194.996775 
L 119.833777 195.266938 
L 119.833777 195.205507 
L 119.357788 195.379123 
L 119.357788 195.348326 
L 119.199125 195.447585 
L 119.199125 195.324187 
L 119.199125 195.075567 
L 119.040462 195.175454 
L 119.040462 195.050392 
L 119.040462 194.987629 
L 118.723136 195.094103 
L 118.723136 195.062632 
L 118.723136 194.936356 
L 118.40581 195.074995 
L 118.40581 195.011636 
L 118.40581 194.884441 
L 118.247147 194.985897 
L 118.247147 194.858239 
L 118.247147 194.762073 
L 117.929821 194.869717 
L 117.929821 194.837548 
L 117.929821 194.805337 
L 117.771158 194.907707 
L 117.771158 194.778635 
L 117.771158 194.713854 
L 117.295169 194.990227 
L 117.295169 194.893025 
L 117.295169 194.730194 
L 117.136506 194.83376 
L 117.136506 194.702925 
L 117.136506 194.637255 
L 116.660516 194.851166 
L 116.660516 194.818278 
L 116.660516 194.487052 
L 116.34319 194.697237 
L 116.34319 194.563912 
L 116.34319 194.429889 
L 116.025864 194.540681 
L 116.025864 194.43959 
L 115.708538 194.652203 
L 115.708538 194.550999 
L 115.708538 194.449393 
L 115.549875 194.556199 
L 115.549875 194.454334 
L 115.549875 194.317883 
L 115.391212 194.425169 
L 115.391212 194.3225 
L 115.391212 194.150469 
L 115.073886 194.331807 
L 115.073886 194.262776 
L 115.073886 194.054569 
L 114.915223 194.163124 
L 114.915223 194.058537 
L 114.915223 194.023581 
L 114.75656 194.132481 
L 114.75656 194.027478 
L 114.75656 193.674363 
L 114.280571 193.933024 
L 114.280571 193.897503 
L 114.280571 193.826315 
L 113.963245 193.940444 
L 113.963245 193.725432 
L 113.328593 194.063527 
L 113.328593 194.027578 
L 113.011266 194.215857 
L 113.011266 194.143921 
L 113.011266 194.071784 
L 112.69394 194.297115 
L 112.69394 194.188853 
L 112.69394 193.640639 
L 112.376614 193.868555 
L 112.376614 193.757839 
L 112.376614 193.534986 
L 112.217951 193.649683 
L 112.217951 193.537705 
L 112.217951 193.500272 
L 111.900625 193.730602 
L 111.900625 193.618316 
L 111.900625 193.543189 
L 111.741962 193.658883 
L 111.741962 193.545955 
L 111.741962 193.35665 
L 111.583299 193.472964 
L 111.583299 193.358892 
L 111.583299 193.282567 
L 111.424636 193.399335 
L 111.424636 193.284602 
L 111.424636 193.130841 
L 111.265973 193.248182 
L 111.265973 193.132442 
L 111.265973 192.585511 
L 110.789984 192.862846 
L 110.789984 192.823404 
L 110.789984 192.783903 
L 110.472658 192.983184 
L 110.472658 192.904125 
L 110.472658 192.745297 
L 109.996669 192.986783 
L 109.996669 192.946928 
L 109.838006 193.067764 
L 109.838006 192.948022 
L 109.838006 192.907987 
L 109.679343 193.029252 
L 109.679343 192.908968 
L 109.679343 192.828473 
L 109.362016 193.072175 
L 109.362016 192.951346 
L 109.362016 192.870485 
L 109.04469 193.034701 
L 109.04469 192.994179 
L 109.04469 192.953595 
L 108.568701 193.282925 
L 108.568701 193.201827 
L 108.568701 192.957022 
L 108.410038 193.081243 
L 108.410038 192.958178 
L 108.410038 192.875815 
L 108.092712 193.084342 
L 108.092712 193.001854 
L 108.092712 192.960513 
L 107.934049 193.085905 
L 107.934049 192.961691 
L 107.934049 192.543383 
L 107.775386 192.669836 
L 107.775386 192.543249 
L 107.775386 192.159843 
L 107.140734 192.585511 
L 107.140734 192.542705 
L 107.140734 192.499829 
L 106.664745 192.757707 
L 106.664745 192.628665 
L 106.347419 192.888078 
L 106.347419 192.758829 
L 106.347419 192.542005 
L 106.030093 192.672882 
L 106.030093 192.541718 
L 105.871429 192.67317 
L 105.871429 192.541574 
L 105.871429 192.497563 
L 105.712766 192.629522 
L 105.712766 192.497272 
L 105.712766 192.275387 
L 105.554103 192.40815 
L 105.554103 192.27435 
L 105.554103 192.139879 
L 105.39544 192.273307 
L 105.39544 192.138381 
L 105.39544 192.002772 
L 105.078114 192.180713 
L 105.078114 192.135354 
L 105.078114 191.769707 
L 104.919451 191.905095 
L 104.919451 191.766918 
L 104.919451 191.535042 
L 104.284799 191.988694 
L 104.284799 191.94223 
L 104.284799 191.802355 
L 104.126136 191.94 
L 104.126136 191.799633 
L 104.126136 191.752682 
L 103.650147 192.074337 
L 103.650147 192.02738 
L 103.650147 191.98034 
L 103.332821 192.259078 
L 103.332821 192.117949 
L 103.332821 192.023449 
L 102.539506 192.726648 
L 102.539506 192.585511 
L 102.539506 191.965143 
L 102.380842 192.107876 
L 102.380842 191.962909 
L 102.380842 191.621588 
L 102.063516 191.860599 
L 102.063516 191.762449 
L 102.063516 191.663941 
L 101.587527 192.050018 
L 101.587527 191.951496 
L 101.587527 191.503637 
L 101.428864 191.650301 
L 101.428864 191.499622 
L 101.428864 191.297408 
L 101.111538 191.491504 
L 101.111538 191.185286 
L 100.952875 191.334134 
L 100.952875 191.231476 
L 100.952875 190.816946 
L 100.794212 190.967 
L 100.794212 190.862568 
L 100.794212 190.652504 
L 100.635549 190.803407 
L 100.635549 190.697959 
L 100.635549 190.539028 
L 100.476886 190.690693 
L 100.476886 190.584418 
L 100.476886 190.531127 
L 100.318223 190.68337 
L 100.318223 190.576669 
L 100.318223 190.415842 
L 100.000897 190.668553 
L 100.000897 190.614824 
L 100.000897 190.398858 
L 99.683571 190.653503 
L 99.683571 190.599337 
L 99.683571 190.326905 
L 99.524908 190.482406 
L 99.524908 190.372878 
L 99.524908 189.874586 
L 99.207582 190.188729 
L 99.207582 190.077184 
L 99.207582 189.341087 
L 98.572929 189.865237 
L 98.572929 189.750629 
L 98.414266 189.91144 
L 98.414266 189.796574 
L 98.414266 189.565418 
L 98.255603 189.7272 
L 98.255603 189.61112 
L 98.255603 189.494558 
L 97.938277 189.761748 
L 97.938277 189.703381 
L 97.938277 189.232031 
L 97.779614 189.396355 
L 97.779614 189.277498 
L 97.779614 188.917901 
L 97.462288 189.128938 
L 97.462288 188.703342 
L 97.303625 188.870628 
L 97.303625 188.74808 
L 97.303625 188.252567 
L 97.144962 188.421363 
L 97.144962 188.296368 
L 97.144962 188.170827 
L 96.986299 188.340457 
L 96.986299 188.2146 
L 96.986299 187.897533 
L 96.668973 188.239558 
L 96.668973 188.112225 
L 96.668973 187.855862 
L 96.51031 188.02816 
L 96.51031 187.899362 
L 96.51031 187.44401 
L 96.034321 187.966505 
L 96.034321 187.835821 
L 96.034321 187.770257 
L 95.875658 187.94558 
L 95.875658 187.814256 
L 95.875658 187.682334 
L 95.558332 188.035179 
L 95.558332 187.903158 
L 95.558332 187.436296 
L 95.399669 187.61447 
L 95.399669 187.47995 
L 95.399669 186.728832 
L 95.241005 186.9091 
L 95.241005 186.77071 
L 95.241005 186.631668 
L 94.765016 187.176604 
L 94.765016 187.0377 
L 94.765016 186.828105 
L 94.44769 187.054873 
L 94.44769 186.98461 
L 94.130364 187.283818 
L 94.130364 187.213493 
L 94.130364 187.001501 
L 93.971701 187.187542 
L 93.971701 187.045637 
L 93.971701 186.543514 
L 93.654375 186.847334 
L 93.654375 186.775006 
L 93.654375 186.702501 
L 93.337049 187.008782 
L 93.337049 186.936208 
L 93.337049 186.717405 
L 93.019723 187.099412 
L 93.019723 186.953223 
L 93.019723 185.756967 
L 92.702397 186.146259 
L 92.702397 185.993902 
L 92.702397 185.141827 
L 92.385071 185.537105 
L 92.385071 185.380186 
L 92.385071 185.222447 
L 92.226408 185.421483 
L 92.226408 185.263233 
L 92.226408 184.863953 
L 92.067745 185.064619 
L 92.067745 184.903746 
L 92.067745 184.82299 
L 91.909082 185.024667 
L 91.909082 184.862831 
L 91.909082 184.700131 
L 91.750419 184.902992 
L 91.750419 184.739745 
L 91.750419 184.07791 
L 91.591755 184.282955 
L 91.591755 184.115578 
L 91.591755 182.478858 
L 91.433092 182.687975 
L 91.433092 182.51096 
L 91.433092 181.335702 
L 90.957103 181.790682 
L 90.957103 180.856326 
L 90.79844 181.072548 
L 90.79844 180.977788 
L 90.79844 179.621393 
L 90.163788 180.405239 
L 90.163788 179.303743 
L 89.687799 179.877766 
L 89.687799 179.468983 
L 89.529136 179.696482 
L 89.529136 179.593686 
L 89.529136 178.120228 
L 89.370473 178.351375 
L 89.370473 178.243811 
L 89.370473 178.02765 
L 89.21181 178.26013 
L 89.21181 178.151729 
L 89.21181 177.383066 
L 88.894484 177.8535 
L 88.894484 177.742667 
L 88.894484 176.842814 
L 88.735821 177.081031 
L 88.735821 176.967079 
L 88.735821 176.27535 
L 88.577158 176.515813 
L 88.577158 176.399379 
L 88.577158 176.282552 
L 88.418495 176.524243 
L 88.418495 176.407234 
L 88.418495 176.289828 
L 88.259832 176.53276 
L 88.259832 176.415169 
L 88.259832 175.338599 
L 88.101168 175.584504 
L 88.101168 175.463034 
L 88.101168 174.849325 
L 87.942505 175.097384 
L 87.942505 174.973572 
L 87.942505 173.839436 
L 87.625179 174.214757 
L 87.625179 172.644461 
L 87.466516 172.900294 
L 87.466516 172.766544 
L 87.466516 172.090363 
L 87.307853 172.34849 
L 87.307853 172.211974 
L 87.307853 171.382101 
L 86.990527 171.904449 
L 86.990527 171.764771 
L 86.990527 170.483495 
L 86.831864 170.748473 
L 86.831864 170.603597 
L 86.831864 169.870747 
L 86.673201 170.138151 
L 86.673201 169.990096 
L 86.673201 169.841461 
L 86.355875 170.23162 
L 86.355875 168.866034 
L 86.197212 169.139487 
L 86.197212 168.984941 
L 86.197212 166.753971 
L 86.038549 167.032129 
L 86.038549 166.868042 
L 86.038549 165.868978 
L 85.879886 166.14997 
L 85.879886 165.981232 
L 85.879886 165.641603 
L 85.721223 165.924507 
L 85.721223 165.753845 
L 85.721223 163.827275 
L 85.403897 164.22324 
L 85.403897 163.130774 
L 85.245234 163.421984 
L 85.245234 163.237293 
L 85.245234 163.051772 
L 85.086571 163.344772 
L 85.086571 163.158656 
L 85.086571 160.857902 
L 84.927908 161.15534 
L 84.927908 160.958047 
L 84.927908 160.15959 
L 84.769245 160.459589 
L 84.769245 160.257853 
L 84.769245 160.055161 
L 84.134592 161.068691 
L 84.134592 160.248107 
L 83.658603 161.179484 
L 83.658603 160.972603 
L 83.658603 160.55579 
L 83.49994 160.870065 
L 83.49994 160.660376 
L 83.49994 158.944836 
L 83.023951 159.685563 
L 83.023951 159.02319 
L 82.547962 160.000425 
L 82.547962 159.778162 
L 82.547962 158.420016 
L 81.91331 159.754699 
L 81.91331 159.525261 
L 81.91331 159.294595 
L 81.437321 160.085149 
L 81.437321 159.148439 
L 81.278658 159.494161 
L 81.278658 159.257074 
L 81.278658 158.051823 
L 81.119995 158.401242 
L 81.119995 158.156444 
L 81.119995 157.910271 
L 80.961331 158.262244 
L 80.961331 158.014979 
L 80.961331 156.757399 
L 80.326679 157.938078 
L 80.326679 157.4243 
L 80.009353 157.897926 
L 80.009353 157.376287 
L 79.216038 158.988567 
L 79.216038 157.926726 
L 78.898712 158.695753 
L 78.898712 158.426931 
L 78.898712 157.334842 
L 78.740049 157.724732 
L 78.740049 157.447784 
L 78.740049 157.169089 
L 78.26406 158.355802 
L 78.26406 158.076446 
L 78.26406 157.7953 
L 77.946734 158.318511 
L 77.946734 158.0345 
L 77.788071 158.441909 
L 77.788071 158.156444 
L 77.788071 157.869108 
L 76.994755 159.663828 
L 76.994755 158.199028 
L 76.677429 159.056831 
L 76.677429 158.758765 
L 76.677429 158.156444 
L 76.360103 159.028894 
L 76.360103 158.72552 
L 76.360103 158.112361 
L 75.249462 160.968832 
L 75.249462 160.036686 
L 75.090799 160.503881 
L 75.090799 160.189157 
L 75.090799 159.872101 
L 74.773473 160.819208 
L 74.773473 160.50095 
L 74.773473 160.180299 
L 74.138821 161.802016 
L 74.138821 159.487274 
L 73.821494 160.151609 
L 73.821494 159.463718 
L 73.345505 160.660376 
L 73.345505 160.311468 
L 72.55219 162.627752 
L 72.55219 161.922952 
L 71.600212 164.935649 
L 71.600212 164.581007 
L 70.648234 167.786953 
L 70.648234 167.432375 
L 69.696255 170.852438 
L 69.696255 170.49894 
L 69.378929 171.45484 
L 69.378929 170.736586 
L 69.061603 172.08075 
L 69.061603 171.71941 
L 69.061603 171.35451 
L 67.157647 179.353753 
L 67.157647 177.917206 
L 66.840321 179.50144 
L 66.840321 179.137194 
L 66.840321 177.639287 
L 65.888342 182.317193 
L 65.888342 181.565987 
L 65.571016 183.345702 
L 65.571016 182.969507 
L 65.571016 182.203354 
L 65.25369 183.662337 
L 65.25369 183.274014 
L 64.936364 185.176725 
L 64.936364 184.790627 
L 64.936364 184.399579 
L 64.301712 188.004642 
L 64.301712 187.619379 
L 64.301712 186.833235 
L 64.143049 187.879993 
L 64.143049 187.483321 
L 64.143049 187.081178 
L 63.984386 188.151465 
L 63.984386 187.74837 
L 63.984386 186.925026 
L 63.191071 191.791354 
L 63.191071 191.385318 
L 62.715081 194.248279 
L 62.715081 193.01118 
L 61.921766 198.898391 
L 61.921766 198.089845 
L 61.763103 199.525758 
L 61.763103 198.70685 
L 61.763103 196.066445 
L 61.128451 202.400682 
L 61.128451 201.541407 
L 61.128451 198.245996 
L 60.652462 202.748944 
L 60.652462 198.497573 
L 60.493799 200.566795 
L 60.493799 199.407121 
L 60.493799 197.551643 
L 59.383157 213.546459 
L 59.383157 212.010858 
L 59.383157 211.465968 
L 59.065831 216.437624 
L 59.065831 215.389179 
L 59.065831 204.265439 
L 58.748505 211.28041 
L 58.748505 210.321697 
L 58.748505 209.308201 
L 58.431179 217.416172 
L 58.431179 216.437624 
L 58.431179 192.585511 
L 57.95519 226.445503 
L 57.95519 219.18979 
L 57.95519 210.321697 
L 57.796527 245.79407 
L 57.796527 245.79407 
L 57.796527 32.959837 
L 57.796527 32.959837 
" clip-path="url(#p940e5a0f96)" style="fill: none; stroke: #1f77b4; stroke-width: 1.5; stroke-linecap: square"/>
   </g>
   <g id="line2d_14">
    <path d="M 331.648942 239.817263 
L 331.648942 35.305117 
L 331.267532 35.308352 
L 331.267532 33.256263 
L 330.886122 33.256677 
L 330.886122 32.959837 
L 57.796527 32.959837 
L 57.796527 32.959837 
" clip-path="url(#p940e5a0f96)" style="fill: none; stroke: #ff7f0e; stroke-width: 1.5; stroke-linecap: square"/>
   </g>
   <g id="patch_3">
    <path d="M 44.103906 256.435781 
L 44.103906 22.318125 
" style="fill: none; stroke: #000000; stroke-width: 0.8; stroke-linejoin: miter; stroke-linecap: square"/>
   </g>
   <g id="patch_4">
    <path d="M 345.341563 256.435781 
L 345.341563 22.318125 
" style="fill: none; stroke: #000000; stroke-width: 0.8; stroke-linejoin: miter; stroke-linecap: square"/>
   </g>
   <g id="patch_5">
    <path d="M 44.103906 256.435781 
L 345.341563 256.435781 
" style="fill: none; stroke: #000000; stroke-width: 0.8; stroke-linejoin: miter; stroke-linecap: square"/>
   </g>
   <g id="patch_6">
    <path d="M 44.103906 22.318125 
L 345.341563 22.318125 
" style="fill: none; stroke: #000000; stroke-width: 0.8; stroke-linejoin: miter; stroke-linecap: square"/>
   </g>
   <g id="text_15">
    <!-- Precision-Recall curves -->
    <g transform="translate(126.041484 16.318125) scale(0.12 -0.12)">
     <defs>
      <path id="DejaVuSans-10" d="M 313 2009 
L 1997 2009 
L 1997 1497 
L 313 1497 
L 313 2009 
z
" transform="scale(0.015625)"/>
      <path id="DejaVuSans-3" transform="scale(0.015625)"/>
      <path id="DejaVuSans-58" d="M 544 1381 
L 544 3500 
L 1119 3500 
L 1119 1403 
Q 1119 906 1312 657 
Q 1506 409 1894 409 
Q 2359 409 2629 706 
Q 2900 1003 2900 1516 
L 2900 3500 
L 3475 3500 
L 3475 0 
L 2900 0 
L 2900 538 
Q 2691 219 2414 64 
Q 2138 -91 1772 -91 
Q 1169 -91 856 284 
Q 544 659 544 1381 
z
M 1991 3584 
L 1991 3584 
z
" transform="scale(0.015625)"/>
      <path id="DejaVuSans-59" d="M 191 3500 
L 800 3500 
L 1894 563 
L 2988 3500 
L 3597 3500 
L 2284 0 
L 1503 0 
L 191 3500 
z
" transform="scale(0.015625)"/>
     </defs>
     <use xlink:href="#DejaVuSans-33"/>
     <use xlink:href="#DejaVuSans-55" transform="translate(58.546875 0)"/>
     <use xlink:href="#DejaVuSans-48" transform="translate(97.453125 0)"/>
     <use xlink:href="#DejaVuSans-46" transform="translate(158.984375 0)"/>
     <use xlink:href="#DejaVuSans-4c" transform="translate(213.96875 0)"/>
     <use xlink:href="#DejaVuSans-56" transform="translate(241.75 0)"/>
     <use xlink:href="#DejaVuSans-4c" transform="translate(293.84375 0)"/>
     <use xlink:href="#DejaVuSans-52" transform="translate(321.625 0)"/>
     <use xlink:href="#DejaVuSans-51" transform="translate(382.8125 0)"/>
     <use xlink:href="#DejaVuSans-10" transform="translate(446.1875 0)"/>
     <use xlink:href="#DejaVuSans-35" transform="translate(482.265625 0)"/>
     <use xlink:href="#DejaVuSans-48" transform="translate(547.265625 0)"/>
     <use xlink:href="#DejaVuSans-46" transform="translate(608.796875 0)"/>
     <use xlink:href="#DejaVuSans-44" transform="translate(663.78125 0)"/>
     <use xlink:href="#DejaVuSans-4f" transform="translate(725.0625 0)"/>
     <use xlink:href="#DejaVuSans-4f" transform="translate(752.84375 0)"/>
     <use xlink:href="#DejaVuSans-3" transform="translate(780.625 0)"/>
     <use xlink:href="#DejaVuSans-46" transform="translate(812.40625 0)"/>
     <use xlink:href="#DejaVuSans-58" transform="translate(867.390625 0)"/>
     <use xlink:href="#DejaVuSans-55" transform="translate(930.765625 0)"/>
     <use xlink:href="#DejaVuSans-59" transform="translate(971.875 0)"/>
     <use xlink:href="#DejaVuSans-48" transform="translate(1031.0625 0)"/>
     <use xlink:href="#DejaVuSans-56" transform="translate(1092.59375 0)"/>
    </g>
   </g>
   <g id="legend_1">
    <g id="patch_7">
     <path d="M 49.703906 252.435781 
L 231.628906 252.435781 
Q 233.228906 252.435781 233.228906 250.835781 
L 233.228906 227.634531 
Q 233.228906 226.034531 231.628906 226.034531 
L 49.703906 226.034531 
Q 48.103906 226.034531 48.103906 227.634531 
L 48.103906 250.835781 
Q 48.103906 252.435781 49.703906 252.435781 
z
" style="fill: #ffffff; opacity: 0.8; stroke: #cccccc; stroke-linejoin: miter"/>
    </g>
    <g id="line2d_15">
     <path d="M 51.303906 232.513281 
L 59.303906 232.513281 
L 67.303906 232.513281 
" style="fill: none; stroke: #1f77b4; stroke-width: 1.5; stroke-linecap: square"/>
    </g>
    <g id="text_16">
     <!-- Phase 2 packet-unsup (AP-AUC=0.191) -->
     <g transform="translate(73.703906 235.313281) scale(0.08 -0.08)">
      <defs>
       <path id="DejaVuSans-4b" d="M 3513 2113 
L 3513 0 
L 2938 0 
L 2938 2094 
Q 2938 2591 2744 2837 
Q 2550 3084 2163 3084 
Q 1697 3084 1428 2787 
Q 1159 2491 1159 1978 
L 1159 0 
L 581 0 
L 581 4863 
L 1159 4863 
L 1159 2956 
Q 1366 3272 1645 3428 
Q 1925 3584 2291 3584 
Q 2894 3584 3203 3211 
Q 3513 2838 3513 2113 
z
" transform="scale(0.015625)"/>
       <path id="DejaVuSans-53" d="M 1159 525 
L 1159 -1331 
L 581 -1331 
L 581 3500 
L 1159 3500 
L 1159 2969 
Q 1341 3281 1617 3432 
Q 1894 3584 2278 3584 
Q 2916 3584 3314 3078 
Q 3713 2572 3713 1747 
Q 3713 922 3314 415 
Q 2916 -91 2278 -91 
Q 1894 -91 1617 61 
Q 1341 213 1159 525 
z
M 3116 1747 
Q 3116 2381 2855 2742 
Q 2594 3103 2138 3103 
Q 1681 3103 1420 2742 
Q 1159 2381 1159 1747 
Q 1159 1113 1420 752 
Q 1681 391 2138 391 
Q 2594 391 2855 752 
Q 3116 1113 3116 1747 
z
" transform="scale(0.015625)"/>
       <path id="DejaVuSans-4e" d="M 581 4863 
L 1159 4863 
L 1159 1991 
L 2875 3500 
L 3609 3500 
L 1753 1863 
L 3688 0 
L 2938 0 
L 1159 1709 
L 1159 0 
L 581 0 
L 581 4863 
z
" transform="scale(0.015625)"/>
       <path id="DejaVuSans-57" d="M 1172 4494 
L 1172 3500 
L 2356 3500 
L 2356 3053 
L 1172 3053 
L 1172 1153 
Q 1172 725 1289 603 
Q 1406 481 1766 481 
L 2356 481 
L 2356 0 
L 1766 0 
Q 1100 0 847 248 
Q 594 497 594 1153 
L 594 3053 
L 172 3053 
L 172 3500 
L 594 3500 
L 594 4494 
L 1172 4494 
z
" transform="scale(0.015625)"/>
       <path id="DejaVuSans-b" d="M 1984 4856 
Q 1566 4138 1362 3434 
Q 1159 2731 1159 2009 
Q 1159 1288 1364 580 
Q 1569 -128 1984 -844 
L 1484 -844 
Q 1016 -109 783 600 
Q 550 1309 550 2009 
Q 550 2706 781 3412 
Q 1013 4119 1484 4856 
L 1984 4856 
z
" transform="scale(0.015625)"/>
       <path id="DejaVuSans-24" d="M 2188 4044 
L 1331 1722 
L 3047 1722 
L 2188 4044 
z
M 1831 4666 
L 2547 4666 
L 4325 0 
L 3669 0 
L 3244 1197 
L 1141 1197 
L 716 0 
L 50 0 
L 1831 4666 
z
" transform="scale(0.015625)"/>
       <path id="DejaVuSans-38" d="M 556 4666 
L 1191 4666 
L 1191 1831 
Q 1191 1081 1462 751 
Q 1734 422 2344 422 
Q 2950 422 3222 751 
Q 3494 1081 3494 1831 
L 3494 4666 
L 4128 4666 
L 4128 1753 
Q 4128 841 3676 375 
Q 3225 -91 2344 -91 
Q 1459 -91 1007 375 
Q 556 841 556 1753 
L 556 4666 
z
" transform="scale(0.015625)"/>
       <path id="DejaVuSans-26" d="M 4122 4306 
L 4122 3641 
Q 3803 3938 3442 4084 
Q 3081 4231 2675 4231 
Q 1875 4231 1450 3742 
Q 1025 3253 1025 2328 
Q 1025 1406 1450 917 
Q 1875 428 2675 428 
Q 3081 428 3442 575 
Q 3803 722 4122 1019 
L 4122 359 
Q 3791 134 3420 21 
Q 3050 -91 2638 -91 
Q 1578 -91 968 557 
Q 359 1206 359 2328 
Q 359 3453 968 4101 
Q 1578 4750 2638 4750 
Q 3056 4750 3426 4639 
Q 3797 4528 4122 4306 
z
" transform="scale(0.015625)"/>
       <path id="DejaVuSans-20" d="M 678 2906 
L 4684 2906 
L 4684 2381 
L 678 2381 
L 678 2906 
z
M 678 1631 
L 4684 1631 
L 4684 1100 
L 678 1100 
L 678 1631 
z
" transform="scale(0.015625)"/>
       <path id="DejaVuSans-1c" d="M 703 97 
L 703 672 
Q 941 559 1184 500 
Q 1428 441 1663 441 
Q 2288 441 2617 861 
Q 2947 1281 2994 2138 
Q 2813 1869 2534 1725 
Q 2256 1581 1919 1581 
Q 1219 1581 811 2004 
Q 403 2428 403 3163 
Q 403 3881 828 4315 
Q 1253 4750 1959 4750 
Q 2769 4750 3195 4129 
Q 3622 3509 3622 2328 
Q 3622 1225 3098 567 
Q 2575 -91 1691 -91 
Q 1453 -91 1209 -44 
Q 966 3 703 97 
z
M 1959 2075 
Q 2384 2075 2632 2365 
Q 2881 2656 2881 3163 
Q 2881 3666 2632 3958 
Q 2384 4250 1959 4250 
Q 1534 4250 1286 3958 
Q 1038 3666 1038 3163 
Q 1038 2656 1286 2365 
Q 1534 2075 1959 2075 
z
" transform="scale(0.015625)"/>
       <path id="DejaVuSans-c" d="M 513 4856 
L 1013 4856 
Q 1481 4119 1714 3412 
Q 1947 2706 1947 2009 
Q 1947 1309 1714 600 
Q 1481 -109 1013 -844 
L 513 -844 
Q 928 -128 1133 580 
Q 1338 1288 1338 2009 
Q 1338 2731 1133 3434 
Q 928 4138 513 4856 
z
" transform="scale(0.015625)"/>
      </defs>
      <use xlink:href="#DejaVuSans-33"/>
      <use xlink:href="#DejaVuSans-4b" transform="translate(60.296875 0)"/>
      <use xlink:href="#DejaVuSans-44" transform="translate(123.671875 0)"/>
      <use xlink:href="#DejaVuSans-56" transform="translate(184.953125 0)"/>
      <use xlink:href="#DejaVuSans-48" transform="translate(237.046875 0)"/>
      <use xlink:href="#DejaVuSans-3" transform="translate(298.578125 0)"/>
      <use xlink:href="#DejaVuSans-15" transform="translate(330.359375 0)"/>
      <use xlink:href="#DejaVuSans-3" transform="translate(393.984375 0)"/>
      <use xlink:href="#DejaVuSans-53" transform="translate(425.765625 0)"/>
      <use xlink:href="#DejaVuSans-44" transform="translate(489.25 0)"/>
      <use xlink:href="#DejaVuSans-46" transform="translate(550.53125 0)"/>
      <use xlink:href="#DejaVuSans-4e" transform="translate(605.515625 0)"/>
      <use xlink:href="#DejaVuSans-48" transform="translate(659.859375 0)"/>
      <use xlink:href="#DejaVuSans-57" transform="translate(721.390625 0)"/>
      <use xlink:href="#DejaVuSans-10" transform="translate(760.59375 0)"/>
      <use xlink:href="#DejaVuSans-58" transform="translate(796.671875 0)"/>
      <use xlink:href="#DejaVuSans-51" transform="translate(860.046875 0)"/>
      <use xlink:href="#DejaVuSans-56" transform="translate(923.421875 0)"/>
      <use xlink:href="#DejaVuSans-58" transform="translate(975.515625 0)"/>
      <use xlink:href="#DejaVuSans-53" transform="translate(1038.890625 0)"/>
      <use xlink:href="#DejaVuSans-3" transform="translate(1102.375 0)"/>
      <use xlink:href="#DejaVuSans-b" transform="translate(1134.15625 0)"/>
      <use xlink:href="#DejaVuSans-24" transform="translate(1173.171875 0)"/>
      <use xlink:href="#DejaVuSans-33" transform="translate(1241.578125 0)"/>
      <use xlink:href="#DejaVuSans-10" transform="translate(1299.671875 0)"/>
      <use xlink:href="#DejaVuSans-24" transform="translate(1333.546875 0)"/>
      <use xlink:href="#DejaVuSans-38" transform="translate(1401.953125 0)"/>
      <use xlink:href="#DejaVuSans-26" transform="translate(1475.140625 0)"/>
      <use xlink:href="#DejaVuSans-20" transform="translate(1544.96875 0)"/>
      <use xlink:href="#DejaVuSans-13" transform="translate(1628.765625 0)"/>
      <use xlink:href="#DejaVuSans-11" transform="translate(1692.390625 0)"/>
      <use xlink:href="#DejaVuSans-14" transform="translate(1724.171875 0)"/>
      <use xlink:href="#DejaVuSans-1c" transform="translate(1787.796875 0)"/>
      <use xlink:href="#DejaVuSans-14" transform="translate(1851.421875 0)"/>
      <use xlink:href="#DejaVuSans-c" transform="translate(1915.046875 0)"/>
     </g>
    </g>
    <g id="line2d_16">
     <path d="M 51.303906 244.513906 
L 59.303906 244.513906 
L 67.303906 244.513906 
" style="fill: none; stroke: #ff7f0e; stroke-width: 1.5; stroke-linecap: square"/>
    </g>
    <g id="text_17">
     <!-- Flow supervised (AP-AUC=1.000) -->
     <g transform="translate(73.703906 247.313906) scale(0.08 -0.08)">
      <defs>
       <path id="DejaVuSans-29" d="M 628 4666 
L 3309 4666 
L 3309 4134 
L 1259 4134 
L 1259 2759 
L 3109 2759 
L 3109 2228 
L 1259 2228 
L 1259 0 
L 628 0 
L 628 4666 
z
" transform="scale(0.015625)"/>
       <path id="DejaVuSans-5a" d="M 269 3500 
L 844 3500 
L 1563 769 
L 2278 3500 
L 2956 3500 
L 3675 769 
L 4391 3500 
L 4966 3500 
L 4050 0 
L 3372 0 
L 2619 2869 
L 1863 0 
L 1184 0 
L 269 3500 
z
" transform="scale(0.015625)"/>
       <path id="DejaVuSans-47" d="M 2906 2969 
L 2906 4863 
L 3481 4863 
L 3481 0 
L 2906 0 
L 2906 525 
Q 2725 213 2448 61 
Q 2172 -91 1784 -91 
Q 1150 -91 751 415 
Q 353 922 353 1747 
Q 353 2572 751 3078 
Q 1150 3584 1784 3584 
Q 2172 3584 2448 3432 
Q 2725 3281 2906 2969 
z
M 947 1747 
Q 947 1113 1208 752 
Q 1469 391 1925 391 
Q 2381 391 2643 752 
Q 2906 1113 2906 1747 
Q 2906 2381 2643 2742 
Q 2381 3103 1925 3103 
Q 1469 3103 1208 2742 
Q 947 2381 947 1747 
z
" transform="scale(0.015625)"/>
      </defs>
      <use xlink:href="#DejaVuSans-29"/>
      <use xlink:href="#DejaVuSans-4f" transform="translate(57.515625 0)"/>
      <use xlink:href="#DejaVuSans-52" transform="translate(85.296875 0)"/>
      <use xlink:href="#DejaVuSans-5a" transform="translate(146.484375 0)"/>
      <use xlink:href="#DejaVuSans-3" transform="translate(228.265625 0)"/>
      <use xlink:href="#DejaVuSans-56" transform="translate(260.046875 0)"/>
      <use xlink:href="#DejaVuSans-58" transform="translate(312.140625 0)"/>
      <use xlink:href="#DejaVuSans-53" transform="translate(375.515625 0)"/>
      <use xlink:href="#DejaVuSans-48" transform="translate(439 0)"/>
      <use xlink:href="#DejaVuSans-55" transform="translate(500.53125 0)"/>
      <use xlink:href="#DejaVuSans-59" transform="translate(541.640625 0)"/>
      <use xlink:href="#DejaVuSans-4c" transform="translate(600.828125 0)"/>
      <use xlink:href="#DejaVuSans-56" transform="translate(628.609375 0)"/>
      <use xlink:href="#DejaVuSans-48" transform="translate(680.703125 0)"/>
      <use xlink:href="#DejaVuSans-47" transform="translate(742.234375 0)"/>
      <use xlink:href="#DejaVuSans-3" transform="translate(805.71875 0)"/>
      <use xlink:href="#DejaVuSans-b" transform="translate(837.5 0)"/>
      <use xlink:href="#DejaVuSans-24" transform="translate(876.515625 0)"/>
      <use xlink:href="#DejaVuSans-33" transform="translate(944.921875 0)"/>
      <use xlink:href="#DejaVuSans-10" transform="translate(1003.015625 0)"/>
      <use xlink:href="#DejaVuSans-24" transform="translate(1036.890625 0)"/>
      <use xlink:href="#DejaVuSans-38" transform="translate(1105.296875 0)"/>
      <use xlink:href="#DejaVuSans-26" transform="translate(1178.484375 0)"/>
      <use xlink:href="#DejaVuSans-20" transform="translate(1248.3125 0)"/>
      <use xlink:href="#DejaVuSans-14" transform="translate(1332.109375 0)"/>
      <use xlink:href="#DejaVuSans-11" transform="translate(1395.734375 0)"/>
      <use xlink:href="#DejaVuSans-13" transform="translate(1427.515625 0)"/>
      <use xlink:href="#DejaVuSans-13" transform="translate(1491.140625 0)"/>
      <use xlink:href="#DejaVuSans-13" transform="translate(1554.765625 0)"/>
      <use xlink:href="#DejaVuSans-c" transform="translate(1618.390625 0)"/>
     </g>
    </g>
   </g>
  </g>
 </g>
 <defs>
  <clipPath id="p940e5a0f96">
   <rect x="44.103906" y="22.318125" width="301.237656" height="234.117656"/>
  </clipPath>
 </defs>
</svg>
